<?xml version="1.0" encoding="utf-8"?>
<!-- Generator: Adobe Illustrator 26.0.1, SVG Export Plug-In . SVG Version: 6.00 Build 0)  -->
<svg version="1.1" id="Group_277" xmlns="http://www.w3.org/2000/svg" xmlns:xlink="http://www.w3.org/1999/xlink" x="0px" y="0px"
	 viewBox="0 0 20.4 12.9" style="enable-background:new 0 0 20.4 12.9;" xml:space="preserve">

<g id="Group_276">
	<path id="Path_293"  d="M0,6.5c0-0.4,0.3-0.7,0.7-0.7c0,0,0,0,0,0H18l-4.5-4.5c-0.3-0.3-0.3-0.7,0-1
		c0.3-0.3,0.7-0.3,1,0c0,0,0,0,0,0l5.7,5.7c0.3,0.3,0.3,0.7,0,1l-5.7,5.7c-0.3,0.3-0.7,0.3-1,0s-0.3-0.7,0-1L18,7.2H0.7
		C0.3,7.2,0,6.9,0,6.5C0,6.5,0,6.5,0,6.5z"/>
</g>
</svg>
