<?xml version="1.0" encoding="utf-8"?>
<!-- Generator: Adobe Illustrator 26.0.1, SVG Export Plug-In . SVG Version: 6.00 Build 0)  -->
<svg version="1.1" id="checked" xmlns="http://www.w3.org/2000/svg" xmlns:xlink="http://www.w3.org/1999/xlink" x="0px" y="0px"
	 viewBox="0 0 19.2 19.2" style="enable-background:new 0 0 19.2 19.2;" xml:space="preserve">

<g id="Group_455">
	<g id="Group_454">
		<path id="Path_371" d="M19.2,9.4C19.1,4,14.7-0.1,9.4,0S-0.1,4.6,0,9.9s4.6,9.5,9.9,9.3l0,0
			C15.2,19.1,19.4,14.7,19.2,9.4z M1.4,9.9c-0.1-4.6,3.5-8.4,8-8.5s8.4,3.5,8.5,8s-3.5,8.4-8,8.5l0,0C5.3,18,1.5,14.4,1.4,9.9
			L1.4,9.9z"/>
		<path id="Path_372" d="M12.6,7.2c-0.3-0.3-0.7-0.2-1,0l-3.1,3.2l-1.1-1c-0.3-0.3-0.7-0.2-1,0s-0.2,0.7,0,1l0,0L8.2,12
			c0.3,0.3,0.7,0.2,1,0l3.5-3.7C12.9,7.9,12.9,7.5,12.6,7.2C12.6,7.3,12.6,7.2,12.6,7.2z"/>
	</g>
</g>
</svg>
