<?xml version="1.0" encoding="utf-8"?>
<!-- Generator: Adobe Illustrator 26.0.0, SVG Export Plug-In . SVG Version: 6.00 Build 0)  -->
<svg version="1.1" id="Group_168" xmlns="http://www.w3.org/2000/svg" xmlns:xlink="http://www.w3.org/1999/xlink" x="0px" y="0px"
	 viewBox="0 0 508.4 499.3" style="enable-background:new 0 0 508.4 499.3;" xml:space="preserve">
<style type="text/css">
	.st0{fill-rule:evenodd;clip-rule:evenodd;fill:#192037;}
</style>
<path id="Path_217" class="st0" d="M322.1,79.2l-0.1,0l-0.2-0.1L185.6,2l1.4-0.2c47.5-6.9,92.8,6.5,127.4,37.9
	c9.2,8.4,17.4,17.8,24.5,28c2,2.9,3.9,5.8,5.7,8.8c38.7-0.6,76.2,13.6,104.7,39.7c9.2,8.4,17.4,17.8,24.6,28
	c7.4,10.6,13.6,22,18.6,34c10.5,25.2,15.8,53,15.8,82.5l0.1,0.9l-0.7-0.4l0,0l-135.3-76.6v-0.3c0.1-39.4-9.9-76.5-28.3-106.8
	C336.8,77.5,329.4,78.1,322.1,79.2z M188.5,2.5l133.7,75.7c7.1-1,14.2-1.6,21.4-1.7c-8.2-13.4-18.2-25.5-29.7-36.1
	C279.7,9.5,235.3-3.9,188.5,2.5z M507.4,259.8c-0.1-57.2-21.4-109.3-58.6-142.9C420.6,91.1,383.6,77,345.3,77.4
	c4.7,7.8,8.8,15.9,12.2,24.2c10.5,25.1,15.8,52.8,15.8,82.2L507.4,259.8z"/>
<path id="Path_218" class="st0" d="M347.5,81.7l135.7,76.8l-0.4,0.8L347.1,82.6L347.5,81.7z"/>
<path id="Path_219" class="st0" d="M372.4,183.4l0.7,0.4l0,0l135.3,76.6v0.3c-0.1,28.5-5.1,56.9-14.8,83.7
	c-9.4,26.2-22.9,50.6-40.1,72.5c-16.5,21.2-36.6,39.3-59.4,53.6c-23,14.3-47.5,23.4-72.6,27.1l-0.1,0l-0.2-0.1l-136.3-77.2l1.4-0.2
	l0,0c102.4-15,186-120.8,186.2-235.9L372.4,183.4z M373.3,185c-0.2,28.3-5.2,56.3-14.8,82.9c-9.4,26.2-22.9,50.6-40.1,72.5
	c-16.5,21.2-36.6,39.3-59.4,53.6c-22.6,14-46.6,23.1-71.3,26.9l133.7,75.7c102.3-15.1,185.7-120.7,186-235.6L373.3,185z"/>
<path id="Path_220" class="st0" d="M346.7,293.7l0.4-0.8l135.7,76.8l-0.4,0.8L346.7,293.7z"/>
<path id="Path_221" class="st0" d="M279.8,378.5l0.4-0.8l135.7,76.8l-0.4,0.8L279.8,378.5z"/>
<path id="Path_222" class="st0" d="M0,237.8l0.7,0.4L136,314.8v0.3c-0.1,39.4,9.9,76.5,28.3,106.8c7.3-0.1,14.7-0.7,22-1.8l0.1,0
	l0.2,0.1l136.3,77.2l-1.4,0.2l0,0c-8,1.2-16.2,1.8-24.3,1.8c-38.2,0.2-75-14-103.1-39.7c-9.2-8.4-17.4-17.8-24.6-28
	c-2-2.9-3.9-5.8-5.7-8.8c-0.5,0-1.1,0-1.6,0c-38.1,0.2-75-14-103.1-39.7c-9.2-8.4-17.4-17.8-24.6-28c-7.4-10.6-13.6-22-18.6-34
	C5.3,295.9-0.1,268.2,0,238.6V237.8z M0.9,239.4c0.1,57.2,21.4,109.3,58.6,143c28,25.6,64.6,39.7,102.5,39.5h1
	c-4.7-7.8-8.8-15.9-12.2-24.2c-10.5-25.2-15.8-52.8-15.8-82.2L0.9,239.4z M164.8,422.8c8.1,13.4,18.2,25.5,29.7,36.1
	c34.1,30.9,78.5,44.3,125.3,37.9l-133.7-75.7C179.1,422.1,172,422.7,164.8,422.8L164.8,422.8z"/>
<path id="Path_223" class="st0" d="M91.8,406l0.4-0.8L227.9,482l-0.4,0.8L91.8,406z"/>
<path id="Path_224" class="st0" d="M286.4,19.4l135.4,76.6c26.1,14.8,47.8,37.4,62.9,65.4c7.8,14.6,13.7,30.1,17.5,46.1
	c4.2,17.4,6.2,35.2,6.1,53c-0.1,28.5-5.1,56.9-14.8,83.7c-9.4,26.2-22.9,50.6-40.1,72.5c-16.5,21.2-36.6,39.3-59.4,53.6
	c-23,14.3-47.5,23.4-72.7,27.1c-8,1.2-16.1,1.8-24.3,1.8c-26.4,0.1-52.4-6.6-75.5-19.6L86.3,403l0.4-0.8l0.3,0.2
	c29.6,16.8,63.9,22.9,99.2,17.7c102.4-15,186-120.8,186.2-235.9c0.1-71.9-32.1-133.1-86.1-163.7l-0.3-0.2L286.4,19.4z M301,28.8
	c20.2,14.8,36.8,34,48.6,56.2c7.8,14.6,13.7,30.1,17.5,46.1c4.2,17.4,6.2,35.2,6.1,53c-0.1,28.5-5.1,56.9-14.8,83.7
	c-9.4,26.2-22.9,50.6-40.1,72.5c-16.5,21.2-36.6,39.3-59.4,53.6c-23,14.3-47.5,23.4-72.7,27.1c-29.6,4.3-58.5,0.7-84.5-10.3
	l120.3,68.1c29.6,16.8,63.9,22.9,99.2,17.7c102.4-15,186-120.8,186.2-235.9c0.1-71.9-32.1-133.1-86.1-163.7L301,28.8z"/>
<path id="Path_225" class="st0" d="M299.6,27.9c44.9,31.7,73.8,88.1,73.7,156.3c-0.2,115.7-83.8,221.7-186.9,236.8
	c-31.1,4.5-60.4,0.3-86.1-11l121.8,69c28.7,16.2,62.7,23.1,99.2,17.7c102.6-15,186-120.7,186.2-236c0.1-74.3-34.3-134.4-86.2-163.8
	l-9.3-5.3C377.3,71.9,334.9,47.9,299.6,27.9z M286.4,20.4c51.9,29.4,86.3,89.5,86.1,163.8c-0.2,115.3-83.6,221-186.2,236
	c-36.5,5.3-70.6-1.5-99.2-17.7l-0.4,0.7l0,0l135,76.4c28.8,16.3,63,23.2,99.7,17.8c103-15.1,186.7-121.1,186.9-236.8
	c0.1-74.5-34.4-134.9-86.6-164.5l-9.3-5.3c-39.2-22.2-88.2-49.9-125.7-71.2l0,0L286.4,20.4L286.4,20.4z"/>
<path id="Path_226" class="st0" d="M322.1,79.2l-0.1,0l-0.2-0.1L185.6,2l1.4-0.2c47.5-6.9,92.8,6.5,127.4,37.9
	c9.2,8.4,17.4,17.8,24.5,28c2,2.9,3.9,5.8,5.7,8.8c38.7-0.6,76.2,13.6,104.7,39.7c9.2,8.4,17.4,17.8,24.6,28
	c7.4,10.6,13.6,22,18.6,34c10.5,25.2,15.8,53,15.8,82.5l0.1,0.9l-0.7-0.4l0,0l-135.3-76.6v-0.3c0.1-39.4-9.9-76.5-28.3-106.8
	C336.8,77.5,329.4,78.1,322.1,79.2z M188.5,2.5l133.7,75.7c7.1-1,14.2-1.6,21.4-1.7c-8.2-13.4-18.2-25.5-29.7-36.1
	C279.7,9.5,235.3-3.9,188.5,2.5z M507.4,259.8c-0.1-57.2-21.4-109.3-58.6-142.9C420.6,91.1,383.6,77,345.3,77.4
	c4.7,7.8,8.8,15.9,12.2,24.2c10.5,25.1,15.8,52.8,15.8,82.2L507.4,259.8z"/>
<path id="Path_227" class="st0" d="M280.8,16.5l135.7,76.8l-0.4,0.8L280.4,17.3L280.8,16.5z"/>
<path id="Path_228" class="st0" d="M322.1,79.2c35.3-5.2,69.6,1,99.2,17.7l0.3,0.2l0.4-0.9L286.7,19.6c-29.8-16.9-64.3-23-99.7-17.8
	L185.6,2l136.3,77.2l0.2,0.1L322.1,79.2z M188.5,2.5l133.7,75.7c8-1.2,16-1.8,24.1-1.8c20.7-0.1,41.2,4.1,60.3,12.1L286.3,20.5
	C257,3.9,223.3-2.3,188.5,2.5z"/>
<path id="Path_229" class="st0" d="M188.2,2.5l133.9,75.8c31-4.5,60.3-0.3,86,11l-121.8-69C257.9,4.3,224.3-2.6,188.2,2.5z
	 M421.7,96.1l-135-76.4C257.8,3.4,223.6-3.5,187,1.9L185.9,2L322,79.1l0.1,0c36.5-5.3,70.5,1.5,99.2,17.7L421.7,96.1L421.7,96.1z"/>
<path id="Path_230" class="st0" d="M0,237.8l0.7,0.4L136,314.8v0.3c-0.1,39.4,9.9,76.5,28.3,106.8c7.3-0.1,14.7-0.7,22-1.8l0.1,0
	l0.2,0.1l136.3,77.2l-1.4,0.2l0,0c-8,1.2-16.2,1.8-24.3,1.8c-38.2,0.2-75-14-103.1-39.7c-9.2-8.4-17.4-17.8-24.6-28
	c-2-2.9-3.9-5.8-5.7-8.8c-0.5,0-1.1,0-1.6,0c-38.1,0.2-75-14-103.1-39.7c-9.2-8.4-17.4-17.8-24.6-28c-7.4-10.6-13.6-22-18.6-34
	C5.3,295.9-0.1,268.2,0,238.6V237.8z M0.9,239.4c0.1,57.2,21.4,109.3,58.6,143c28,25.6,64.6,39.7,102.5,39.5h1
	c-4.7-7.8-8.8-15.9-12.2-24.2c-10.5-25.2-15.8-52.8-15.8-82.2L0.9,239.4z M164.8,422.8c8.1,13.4,18.2,25.5,29.7,36.1
	c34.1,30.9,78.5,44.3,125.3,37.9l-133.7-75.7C179.1,422.1,172,422.7,164.8,422.8L164.8,422.8z"/>
<path id="Path_231" class="st0" d="M25.2,340.8l0.4-0.8l135.7,76.8l-0.4,0.8L25.2,340.8z"/>
<path id="Path_232" class="st0" d="M187.1,1.8l0.2,0.1L323.5,79l-1.4,0.2l0,0C219.7,94.2,136.2,200,136,315.1v0.8l-0.7-0.4l0,0
	L0,238.9v-0.3c0.1-28.5,5.1-56.9,14.8-83.7c9.4-26.2,22.9-50.6,40.1-72.5c16.5-21.2,36.6-39.3,59.4-53.6
	c23-14.3,47.5-23.4,72.7-27.1L187.1,1.8z M320.6,78.4c-24.7,3.8-48.7,12.9-71.3,26.9c-22.8,14.3-42.9,32.4-59.4,53.6
	c-17.2,21.8-30.7,46.3-40.1,72.5c-9.6,26.6-14.6,54.6-14.8,82.9L0.9,238.4C1.3,123.4,84.7,17.8,186.9,2.8L320.6,78.4z"/>
<path id="Path_233" class="st0" d="M25.5,129.6l0.4-0.8l135.7,76.8l-0.4,0.8L25.5,129.6z"/>
<path id="Path_234" class="st0" d="M92.9,44l135.7,76.8l-0.4,0.8L92.5,44.8L92.9,44z"/>
<path id="Path_235" class="st0" d="M187.1,1.8l0.2,0.1L323.5,79l-1.4,0.2l0,0C219.7,94.2,136.2,200,136,315.1
	c-0.1,71.9,32.1,133.1,86.1,163.7l0.3,0.2l-0.4,0.8L86.6,403.2c-26.1-14.8-47.8-37.4-62.9-65.4c-7.8-14.6-13.7-30.1-17.5-46.1
	c-4.2-17.4-6.2-35.2-6.1-53c0.1-28.5,5.1-56.9,14.8-83.7c9.4-26.2,22.9-50.6,40.1-72.5c16.5-21.2,36.6-39.3,59.4-53.6
	c23-14.3,47.5-23.4,72.7-27.1L187.1,1.8z M320.6,78.4L186.9,2.8C84.6,17.8,1.1,123.6,0.9,238.6C0.8,310.6,33,371.7,87,402.3
	l120.3,68.1c-20.2-14.8-36.9-34-48.6-56.2c-7.8-14.6-13.7-30.1-17.5-46.1c-4.2-17.4-6.2-35.2-6.1-53c0.1-28.5,5.1-56.9,14.8-83.7
	c9.4-26.2,22.9-50.6,40.1-72.5c16.5-21.2,36.6-39.3,59.4-53.6C271.9,91.3,295.9,82.2,320.6,78.4L320.6,78.4z"/>
<path id="Path_236" class="st0" d="M187.1,1.9l136.1,77.1l-1.1,0.2c-102.6,15-186,120.7-186.2,236c-0.1,74.3,34.3,134.4,86.2,163.8
	c0,0,0,0,0,0l-0.4,0.7c0,0,0,0,0,0l-135-76.4C34.5,373.6,0,313.2,0.1,238.6C0.3,123,83.9,16.9,187,1.9L187.1,1.9z M208.8,471.4
	c-44.9-31.7-73.8-88.1-73.7-156.3c0.2-115.3,83.2-220.9,185.8-236.6L187,2.7C84.4,17.7,1,123.3,0.8,238.6
	C0.7,312.9,35.1,373,87,402.4L208.8,471.4z"/>
<path id="Path_237" class="st0" d="M259.2,7.9l0.3,0.1c18.9,6.2,36.4,16.1,51.5,29.1l83.6,47.3c22.2,7.3,42.5,19.7,59.1,36.2l0,0
	l2.5,2.5l-3-1.7l0,0L318.1,44.9l0,0c-2.5-2.4-5-4.8-7.6-7L258.8,8.7L259.2,7.9z M314.4,40.2c1.4,1.3,2.8,2.6,4.2,4l131.7,74.5
	c-16-15.1-35.2-26.5-56.1-33.3l0,0L314.4,40.2z M264.2,10.7c15.2,5.6,29.4,13.7,42.1,23.8L264.2,10.7z"/>
<path id="Path_238" class="st0" d="M280.6,16.7l135.7,76.8l-0.4,0.8L280.1,17.6L280.6,16.7z"/>
<path id="Path_239" class="st0" d="M322.1,79.6c25-3.7,49.3-1.7,72.1,5.8l0.3,0.1l0.3-0.8L259.5,8l0,0c-23-7.6-47.4-9.5-72.5-5.8
	l-1.4,0.2l136.3,77.1l0.2,0.1L322.1,79.6z M188.5,2.9l133.7,75.7c8-1.2,16.1-1.8,24.2-1.8c14.8,0,29.6,2.1,43.8,6.3L259.1,8.9
	C236.4,1.5,212.2-0.5,188.5,2.9z"/>
<path id="Path_240" class="st0" d="M235.9,2.2L371.6,79l-0.4,0.8L235.5,3L235.9,2.2z"/>
<path id="Path_241" class="st0" d="M211.7,0.2L347.4,77l-0.4,0.8L211.3,1.1L211.7,0.2z"/>
<path id="Path_242" class="st0" d="M187.1,2.1l0.2,0.1l136.3,77.2l-1.4,0.2l0,0c-25,3.7-49.3,12.7-72.2,26.9l0,0l-0.2,0.1l-0.2-0.1
	h0L113.7,29.6l0.7-0.4l0,0c23-14.3,47.4-23.4,72.5-27L187.1,2.1z M320.6,78.8L186.9,3.1c-24.7,3.6-48.7,12.5-71.4,26.5l134.1,75.9
	C272.2,91.6,296,82.6,320.6,78.8z"/>
<path id="Path_243" class="st0" d="M162.1,7.5l135.7,76.8l-0.4,0.8L161.7,8.3L162.1,7.5z"/>
<path id="Path_244" class="st0" d="M137.9,16.5l135.7,76.8l-0.4,0.8L137.5,17.4L137.9,16.5z"/>
<path id="Path_245" class="st0" d="M114.6,29.1l0.2,0.1L250.6,106l-0.7,0.4l0,0c-22.6,14.2-42.6,32.2-59,53.3l-0.2,0.3l-0.4-0.2l0,0
	L54.8,83.1l0.4-0.5l0,0c16.5-21.1,36.6-39.2,59.3-53.5L114.6,29.1z M248.7,106.1L114.7,30.2C92.3,44.2,72.5,62.1,56.2,82.9l134.2,76
	C206.7,138,226.4,120.2,248.7,106.1z"/>
<path id="Path_246" class="st0" d="M93.2,44.1L228.9,121l-0.4,0.8L92.7,45L93.2,44.1z"/>
<path id="Path_247" class="st0" d="M73.4,62l135.7,76.8l-0.4,0.8L73,62.8L73.4,62z"/>
<path id="Path_248" class="st0" d="M55.4,82.4l0.3,0.2l0,0l135.5,76.7l-0.4,0.5l0,0c-17.1,21.7-30.6,46-39.9,72l0,0l-0.2,0.5
	l-0.5-0.3L14.9,155.4l0.2-0.4c9.3-26.1,22.9-50.5,40-72.3l0,0L55.4,82.4z M189.8,159.6l-134.2-76c-16.9,21.5-30.2,45.6-39.5,71.3
	l134.2,76C159.6,205.2,172.9,181.1,189.8,159.6L189.8,159.6z"/>
<path id="Path_249" class="st0" d="M39.1,105.8l0.4-0.8l135.7,76.8l-0.4,0.8L39.1,105.8z"/>
<path id="Path_250" class="st0" d="M25.7,129.9l0.4-0.8l135.7,76.8l-0.4,0.8L25.7,129.9z"/>
<path id="Path_251" class="st0" d="M15.3,154.5l0.5,0.3l135.4,76.7l-0.1,0.3l0,0.1l0,0c-9.6,26.7-14.6,54.8-14.7,83.2v0l0,0.8
	l-0.7-0.4l0,0L0.3,238.9v-0.3c0.1-28.5,5.1-56.8,14.8-83.6L15.3,154.5z M15.8,155.9c-9.5,26.5-14.4,54.3-14.5,82.4l134.1,75.9
	c0.2-28.1,5.1-55.9,14.6-82.4L15.8,155.9z"/>
<path id="Path_252" class="st0" d="M6.9,182.9l0.4-0.8L143,258.9l-0.4,0.8L6.9,182.9z"/>
<path id="Path_253" class="st0" d="M1.9,210.7l0.4-0.8l135.7,76.8l-0.4,0.8L1.9,210.7z"/>
<path id="Path_254" class="st0" d="M0.3,237.8l0.7,0.4l135.3,76.6v0.3c-0.1,28.1,4.8,54.7,14.4,78.9l0,0l0.5,1.3l-1.2-0.7l0,0
	L14.9,318.1l-0.1-0.2l0,0c-9.7-24.4-14.5-51.1-14.5-79.3V237.8z M1.2,239.4c0,27.8,4.9,54,14.4,78l133.8,75.7
	c-9.3-24-14-50.1-14-77.8L1.2,239.4z"/>
<path id="Path_255" class="st0" d="M1.8,266.5l0.4-0.8L138,342.5l-0.4,0.8L1.8,266.5z"/>
<path id="Path_256" class="st0" d="M6.7,292.9l0.4-0.8l135.7,76.8l-0.4,0.8L6.7,292.9z"/>
<path id="Path_257" class="st0" d="M14.3,316.7l1.1,0.6l135.2,76.5l0.1,0.2l0,0c9.3,23.4,22.6,43.7,39.6,60.4l0,0l2.4,2.5l-3-1.7
	l0,0L54.7,378.6l0,0c-17.1-16.7-30.5-37.1-39.8-60.7v0L14.3,316.7z M16.2,318.8c8.8,22.2,22.1,42.3,39.1,59.1l132,74.7
	c-16.2-16.7-28.8-36.4-37.3-58.1L16.2,318.8z"/>
<path id="Path_258" class="st0" d="M25.4,340.4l0.4-0.8l135.7,76.8l-0.4,0.8L25.4,340.4z"/>
<path id="Path_259" class="st0" d="M38.6,360.6l0.4-0.8l135.7,76.8l-0.4,0.8L38.6,360.6z"/>
<path id="Path_260" class="st0" d="M52,376l3.2,1.8l135.1,76.5l0,0c2.5,2.4,5,4.8,7.6,7l51.5,29.2l-0.3,0.8l-0.3-0.1
	c-18.9-6.2-36.4-16.1-51.4-29.1l-83.7-47.4c-22.2-7.3-42.5-19.7-59.1-36.2L52,376z M244.1,488.6c-15.2-5.6-29.4-13.6-42.1-23.8
	L244.1,488.6z M58,380.5c16,15.1,35.2,26.5,56.1,33.4l0,0l79.8,45.2c-1.4-1.3-2.9-2.6-4.3-4L58,380.5z"/>
<path id="Path_261" class="st0" d="M72.4,393.7l0.4-0.8l135.7,76.8l-0.4,0.8L72.4,393.7z"/>
<path id="Path_262" class="st0" d="M187.1,3.1c-25,3.7-49.3,12.7-72.2,26.9c-22.6,14.2-42.6,32.2-59,53.3
	c-17.1,21.7-30.6,46-39.9,72.1c-9.6,26.7-14.6,54.8-14.7,83.2c-0.1,28.1,4.8,54.7,14.4,78.9c8.8,22.7,22.3,43.3,39.6,60.4
	c9.5,9.4,20.3,17.5,31.9,24.1l120.4,68.1c-6.3-4.6-12.3-9.6-17.9-15.1c-17.4-17.2-31-37.9-39.8-60.7c-9.7-24.4-14.5-51.1-14.5-79.3
	c0.1-28.5,5.1-56.8,14.8-83.6c9.3-26.1,22.9-50.5,40-72.3c16.5-21.1,36.6-39.2,59.3-53.5c23-14.3,47.4-23.4,72.5-27
	s49.6-1.7,72.5,5.8c4,1.3,8,2.8,12,4.5L286.1,20.8c-8.6-4.8-17.6-8.8-26.9-11.9c-15.4-5.1-31.6-7.6-47.9-7.6
	C203.2,1.3,195.1,1.9,187.1,3.1z M286.6,20c-8.6-4.9-17.7-8.9-27.1-12c-23-7.6-47.4-9.5-72.5-5.8s-49.6,12.8-72.6,27
	C91.7,43.5,71.6,61.6,55.1,82.7c-17.2,21.8-30.7,46.2-40,72.3c-9.7,26.8-14.7,55.1-14.8,83.6c-0.1,28.2,4.8,54.9,14.5,79.3
	c9.3,23.6,22.7,44,39.8,60.7c9.6,9.4,20.4,17.6,32.1,24.2l135.3,76.6l0.5-0.8l-0.3-0.2c-11.6-6.6-22.4-14.7-31.9-24.1
	c-17-16.6-30.3-36.9-39.6-60.4c-9.6-24.3-14.5-50.8-14.4-78.9c0.1-28.4,5.1-56.5,14.7-83.2c9.3-26,22.8-50.4,39.9-72
	c16.4-21.1,36.4-39.1,59-53.3c22.9-14.2,47.2-23.3,72.2-26.9s49.3-1.7,72.1,5.8c9.3,3.1,18.4,7.1,26.9,11.9l0.3,0.2l0.4-0.8
	L286.6,20z"/>
<path id="Path_263" class="st0" d="M259.2,8.8c-22.8-7.5-47.1-9.5-72.1-5.8S137.7,15.7,114.8,30C92.2,44.2,72.2,62.2,55.8,83.3
	c-17.1,21.7-30.6,46-39.9,72.1C6.2,182,1.2,210.2,1.2,238.6c0,28.1,4.8,54.7,14.4,79c8.8,22.7,22.3,43.3,39.6,60.4
	c9.5,9.4,20.3,17.5,31.9,24.1l121.9,69c-6.8-4.8-13.3-10.2-19.3-16.1c-17.4-17.2-31-37.9-39.8-60.7c-9.7-24.4-14.5-51-14.5-79.3
	c0.1-28.5,5.1-56.7,14.8-83.5c9.3-26.1,22.8-50.5,40-72.3c16.5-21.1,36.5-39.2,59.3-53.5c23-14.3,47.4-23.4,72.5-27
	s49.5-1.7,72.5,5.8c4.6,1.5,9.2,3.3,13.6,5.2c-38.5-21.8-85.6-48.5-121.9-69C277.6,15.9,268.6,11.9,259.2,8.8z M421.6,96.5
	c-40.5-22.9-94.5-53.5-135-76.4c-8.6-4.9-17.7-8.9-27.1-12c-22.9-7.6-47.3-9.5-72.5-5.8s-49.5,12.8-72.5,27
	C91.7,43.5,71.7,61.6,55.2,82.8c-17.2,21.8-30.7,46.2-40,72.3c-9.7,26.8-14.7,55.1-14.8,83.5c0,28.2,4.8,54.9,14.5,79.3
	c8.8,22.8,22.4,43.5,39.8,60.7c9.6,9.4,20.4,17.6,32.1,24.2l135,76.4c0,0,0,0,0,0l0.4-0.7c-11.6-6.6-22.4-14.7-31.9-24.1
	c-17.3-17.1-30.8-37.7-39.6-60.4c-9.6-24.3-14.5-50.8-14.4-79c0.1-28.4,5.1-56.6,14.7-83.3c9.3-26,22.8-50.4,39.9-72.1
	c16.4-21.1,36.4-39.1,59.1-53.3c22.9-14.2,47.2-23.3,72.2-26.9s49.3-1.7,72.2,5.8c9.4,3.1,18.4,7.1,27,11.9L421.6,96.5L421.6,96.5z"
	/>
<path id="Path_264" class="st0" d="M357.5,266.9l0.5,0.3l135.4,76.7l-0.1,0.3l0,0.1l0,0c-9.3,26.1-22.9,50.5-40,72.3l0,0l-0.3,0.3
	l-0.3-0.2l0,0l-135.5-76.7l0.4-0.5l0,0c17.1-21.7,30.6-46,39.9-72l0,0L357.5,266.9z M318.5,339.7l134.2,76
	c16.9-21.5,30.2-45.6,39.5-71.3l-134.2-76C348.7,294,335.4,318.1,318.5,339.7L318.5,339.7z"/>
<path id="Path_265" class="st0" d="M333.2,317.6l0.4-0.8l135.7,76.8l-0.4,0.8L333.2,317.6z"/>
<path id="Path_266" class="st0" d="M346.5,293.5l0.4-0.8l135.7,76.8l-0.4,0.8L346.5,293.5z"/>
<path id="Path_267" class="st0" d="M372.1,183.4l0.7,0.4l0,0L508,260.4v0.3c-0.1,28.5-5.1,56.8-14.8,83.6l-0.2,0.6l-0.5-0.3
	l-135.4-76.7l0.2-0.4c9.6-26.7,14.6-54.8,14.7-83.2L372.1,183.4z M373,185c-0.2,28.1-5.1,55.9-14.6,82.4l134.2,76
	c9.5-26.4,14.4-54.3,14.5-82.4L373,185z"/>
<path id="Path_268" class="st0" d="M365.4,240.5l0.4-0.8l135.7,76.8l-0.4,0.8L365.4,240.5z"/>
<path id="Path_269" class="st0" d="M370.3,212.6l0.4-0.8l135.7,76.8l-0.4,0.8L370.3,212.6z"/>
<path id="Path_270" class="st0" d="M357.2,104l1.1,0.6l135.2,76.5l0.1,0.2v0c9.7,24.4,14.5,51.1,14.5,79.3v0l0,0.8l-0.7-0.4l0,0
	l-135.3-76.6v-0.3c0.1-28.1-4.8-54.7-14.4-78.9v0L357.2,104z M507.1,259.9c0-27.8-4.9-54-14.4-78L359,106.2c9.3,24,14,50.1,14,77.8
	L507.1,259.9z"/>
<path id="Path_271" class="st0" d="M370.4,156.9l0.4-0.8l135.7,76.8l-0.4,0.8L370.4,156.9z"/>
<path id="Path_272" class="st0" d="M365.6,130.4l0.4-0.8l135.7,76.8l-0.4,0.8L365.6,130.4z"/>
<path id="Path_273" class="st0" d="M315.4,42.3l3.2,1.8l135.1,76.5l0,0c17.1,16.7,30.5,37.1,39.8,60.7l0,0l0.5,1.3l-1.2-0.7l0,0
	l-135.2-76.5l-0.1-0.2l0,0C348.8,82.6,335.3,62,318,44.9L315.4,42.3z M321.1,46.7c16.2,16.7,28.8,36.4,37.3,58.1l133.7,75.7
	c-8.8-22.2-22.1-42.3-39.1-59.1L321.1,46.7z"/>
<path id="Path_274" class="st0" d="M347.3,82.1L483,158.9l-0.4,0.8L346.9,82.9L347.3,82.1z"/>
<path id="Path_275" class="st0" d="M334,61.8l135.7,76.8l-0.4,0.8L333.6,62.7L334,61.8z"/>
<path id="Path_276" class="st0" d="M259.2,7.9l0.3,0.1c18.9,6.2,36.4,16.1,51.5,29.1l83.6,47.3c22.2,7.3,42.5,19.7,59.1,36.2l0,0
	l2.5,2.5l-3-1.7l0,0L318.1,44.9l0,0c-2.5-2.4-5-4.8-7.6-7L258.8,8.7L259.2,7.9z M314.4,40.2c1.4,1.3,2.8,2.6,4.2,4l131.7,74.5
	c-16-15.1-35.2-26.5-56.1-33.3l0,0L314.4,40.2z M264.2,10.7c15.2,5.6,29.4,13.7,42.1,23.8L264.2,10.7z"/>
<path id="Path_277" class="st0" d="M300.3,28.8L436,105.6l-0.4,0.8L299.8,29.6L300.3,28.8z"/>
<path id="Path_278" class="st0" d="M286.3,19.8l135.4,76.6c11.7,6.7,22.5,14.8,32.1,24.2c17.1,16.7,30.5,37.1,39.8,60.7
	c9.7,24.4,14.5,51.1,14.5,79.3c-0.1,28.5-5.1,56.8-14.8,83.6c-9.3,26.1-22.9,50.5-40,72.3l0,0l0,0.1l-0.2,0.3l-0.3-0.2l0,0
	l-135.5-76.7l0.4-0.5l0,0c17.1-21.7,30.6-46,39.9-72c9.6-26.7,14.6-54.8,14.7-83.2c0.1-28.1-4.8-54.7-14.4-78.9
	C348.8,82.6,335.3,62,318,44.9c-9.5-9.4-20.3-17.5-31.9-24.1l-0.3-0.2L286.3,19.8z M300.8,29.2c6.3,4.6,12.3,9.6,17.8,15.1
	c17.1,16.7,30.5,37.1,39.8,60.7c9.7,24.4,14.5,51.1,14.5,79.3c-0.1,28.5-5.1,56.8-14.8,83.6c-9.3,25.9-22.7,50.2-39.7,71.9l134.2,76
	c17-21.6,30.4-45.8,39.6-71.7c9.6-26.7,14.6-54.8,14.7-83.2c0.1-28.1-4.8-54.7-14.4-78.9c-8.8-22.7-22.3-43.3-39.6-60.4
	c-9.5-9.4-20.3-17.5-31.9-24.1L300.8,29.2z"/>
<path id="Path_279" class="st0" d="M286.2,20.7l0.4-0.7l135,76.4c11.7,6.6,22.5,14.8,32.1,24.2c17.1,16.7,30.5,37.1,39.8,60.7
	c9.7,24.4,14.5,51,14.5,79.3c-0.1,28.5-5.1,56.7-14.8,83.5c-9.3,26.1-22.8,50.5-40,72.3l-0.2,0.2l-135.7-76.8l0.3-0.4
	c17.1-21.7,30.6-46,39.9-72.1c9.6-26.7,14.6-54.9,14.7-83.3c0.1-28.1-4.8-54.7-14.4-79c-9.3-23.4-22.6-43.8-39.6-60.4
	C308.5,35.4,297.8,27.3,286.2,20.7L286.2,20.7z M299.3,28.2c6.8,4.8,13.3,10.2,19.3,16.1c17.1,16.7,30.5,37.1,39.8,60.7
	c9.7,24.4,14.5,51,14.5,79.3c-0.1,28.5-5.1,56.7-14.8,83.5c-9.3,26-22.7,50.2-39.7,71.9l134.4,76.1c17-21.6,30.4-45.9,39.7-71.8
	c9.7-26.7,14.6-54.9,14.7-83.3c0-28.1-4.8-54.7-14.4-79c-8.8-22.7-22.3-43.3-39.6-60.4c-9.5-9.4-20.3-17.5-31.9-24.1L299.3,28.2z"/>
<path id="Path_280" class="st0" d="M52,376l3.2,1.8l135.1,76.5l0,0c2.5,2.4,5,4.8,7.6,7l51.5,29.2l-0.3,0.8l-0.3-0.1
	c-18.9-6.2-36.4-16.1-51.4-29.1l-83.7-47.4c-22.2-7.3-42.5-19.7-59.1-36.2L52,376z M244.1,488.6c-15.2-5.6-29.4-13.6-42.1-23.8
	L244.1,488.6z M58,380.5c16,15.1,35.2,26.5,56.1,33.4l0,0l79.8,45.2c-1.4-1.3-2.9-2.6-4.3-4L58,380.5z"/>
<path id="Path_281" class="st0" d="M92.1,405.7l0.4-0.8l135.7,76.8l-0.4,0.8L92.1,405.7z"/>
<path id="Path_282" class="st0" d="M113.8,413.8l0.3,0.1c22.8,7.5,47.1,9.5,72.1,5.8l0.1,0l0.2,0.1l136.3,77.2l-1.4,0.2l0,0
	c-8.1,1.2-16.2,1.8-24.4,1.8c-16.4,0-32.6-2.5-48.1-7.6l0,0l0,0l-135.3-76.6L113.8,413.8z M319.9,496.3l-133.7-75.7
	c-22.8,3.5-46,1.9-68.1-4.5l131.1,74.2C272,497.8,296.1,499.8,319.9,496.3L319.9,496.3z"/>
<path id="Path_283" class="st0" d="M136.8,420.3l0.4-0.8l135.7,76.8l-0.4,0.8L136.8,420.3z"/>
<path id="Path_284" class="st0" d="M160.9,422.3l0.4-0.8L297,498.2l-0.4,0.8L160.9,422.3z"/>
<path id="Path_285" class="st0" d="M258.6,392.6l0.2,0.1l135.8,76.9l-0.7,0.4l0,0c-22.9,14.3-47.3,23.4-72.5,27l-0.1,0.1l-0.2-0.1
	l-136.3-77.2l1.4-0.2l0,0c25-3.7,49.3-12.7,72.2-26.9L258.6,392.6z M392.8,469.6l-134.1-75.9c-22.5,13.9-46.3,22.9-70.9,26.7
	l133.7,75.7C346.1,492.5,370.1,483.6,392.8,469.6L392.8,469.6z"/>
<path id="Path_286" class="st0" d="M210.6,415l0.4-0.8L346.7,491l-0.4,0.8L210.6,415z"/>
<path id="Path_287" class="st0" d="M234.7,406l0.4-0.8L370.9,482l-0.4,0.8L234.7,406z"/>
<path id="Path_288" class="st0" d="M317.7,339.2l0.3,0.2l0,0l135.5,76.7l-0.4,0.5l0,0c-16.5,21.1-36.6,39.2-59.3,53.5l0,0l-0.2,0.1
	l-0.2-0.1h0l-135.8-76.9l0.7-0.4l0,0c22.6-14.2,42.6-32.2,59-53.3l0,0L317.7,339.2z M259.6,393.2l134.1,75.9
	c22.4-14.1,42.1-31.9,58.5-52.7l-134.2-76C301.6,361.2,281.9,379.1,259.6,393.2z"/>
<path id="Path_289" class="st0" d="M279.5,378.3l0.4-0.8l135.7,76.8l-0.4,0.8L279.5,378.3z"/>
<path id="Path_290" class="st0" d="M299.3,360.5l0.4-0.8l135.7,76.8l-0.4,0.8L299.3,360.5z"/>
<path id="Path_291" class="st0" d="M317.7,339.2l0.3,0.2l0,0l135.5,76.7l-0.4,0.5l0,0c-16.5,21.1-36.6,39.2-59.3,53.5
	c-23,14.3-47.4,23.4-72.5,27c-8.1,1.2-16.2,1.8-24.4,1.8c-16.4,0-32.6-2.5-48.1-7.6c-9.4-3.1-18.5-7.1-27.1-12L86.8,402.9l0,0
	c0,0-0.1-0.1-0.1-0.1l-0.3-0.2l0.4-0.8l0.3,0.2c8.6,4.8,17.6,8.8,26.9,11.9c22.8,7.5,47.1,9.5,72.1,5.8s49.3-12.7,72.2-26.9
	c22.6-14.2,42.6-32.2,59-53.3v0L317.7,339.2z M101.8,410.3l120.4,68.1c8.6,4.8,17.6,8.8,26.9,11.9c22.8,7.5,47.1,9.5,72.1,5.8
	c25-3.7,49.3-12.7,72.2-26.9c22.5-14.1,42.3-32,58.7-52.8l-134.2-76c-16.5,21-36.4,39-59,53.2c-23,14.3-47.4,23.4-72.5,27
	 M186.3,420.7c-25.2,3.7-49.6,1.7-72.5-5.8c-4.1-1.3-8-2.8-12-4.5"/>
<path id="Path_292" class="st0" d="M317.7,339.3l135.7,76.8l-0.3,0.4c-16.5,21.1-36.5,39.2-59.3,53.5c-23,14.3-47.4,23.4-72.5,27
	s-49.5,1.7-72.5-5.8c-9.4-3.1-18.5-7.1-27.1-12l-135-76.4c0,0,0,0,0,0l0,0l0.4-0.7l0,0c8.6,4.8,17.6,8.8,26.9,11.9
	c22.8,7.5,47.1,9.5,72.2,5.8s49.3-12.7,72.2-26.9c22.6-14.2,42.6-32.2,59.1-53.3L317.7,339.3z M100.3,409.5l121.9,69
	c8.6,4.8,17.6,8.8,26.9,11.9c22.8,7.5,47.1,9.5,72.2,5.8s49.3-12.7,72.2-26.9c22.5-14.1,42.4-32,58.8-52.9l-134.4-76.1
	c-16.5,21-36.4,39-59.1,53.2c-23,14.3-47.4,23.4-72.5,27s-49.5,1.7-72.5-5.8C109.2,413.2,104.7,411.5,100.3,409.5z"/>
</svg>
