<?xml version="1.0" encoding="utf-8"?>
<!-- Generator: Adobe Illustrator 26.0.1, SVG Export Plug-In . SVG Version: 6.00 Build 0)  -->
<svg version="1.1" id="Layer_1" xmlns="http://www.w3.org/2000/svg" xmlns:xlink="http://www.w3.org/1999/xlink" x="0px" y="0px"
	 viewBox="0 0 601.6 442.3" style="enable-background:new 0 0 601.6 442.3;" xml:space="preserve">
<style type="text/css">
	.st0{fill:none;stroke:#192037;stroke-miterlimit:10;}
</style>
<g id="Group_171" transform="translate(-0.431 -0.625)">
	<path id="Path_296" class="st0" d="M445,2l155.6,283.4l-310.1-43.6L445,2z"/>
	<path id="Path_297" class="st0" d="M445,2l155.6,283.4l-310.1-43.6L445,2z"/>
	<path id="Path_298" class="st0" d="M156.6,158.9l155.6,283.4L2,398.7L156.6,158.9z"/>
	<path id="Path_299" class="st0" d="M156.6,158.9l155.6,283.4L2,398.7L156.6,158.9z"/>
	<path id="Path_300" class="st0" d="M156.6,158.9L445,2l155.6,283.4L312.1,442.3L156.6,158.9z"/>
	<path id="Path_301" class="st0" d="M156.6,158.9L445,2l155.6,283.4L312.1,442.3L156.6,158.9z"/>
	<path id="Path_302" class="st0" d="M290.4,241.8l310.1,43.6L312.1,442.3L2,398.7L290.4,241.8z"/>
	<path id="Path_303" class="st0" d="M312.1,442.3L2,398.7l288.4-156.9l310.1,43.6L312.1,442.3z"/>
	<path id="Path_304" class="st0" d="M290.4,241.8L2,398.7l154.6-239.8L445,2"/>
	<path id="Path_305" class="st0" d="M2,398.7l154.6-239.8L445,2L290.4,241.8L2,398.7z"/>
</g>
</svg>
