<svg xmlns="http://www.w3.org/2000/svg" viewBox="0 0 23.52 17.899">
  <g id="envelope" transform="translate(0 -57.75)">
    <g id="Group_311" data-name="Group 311" transform="translate(0 57.75)">
      <path id="Path_314" data-name="Path 314" d="M20.648,57.75H2.876A2.879,2.879,0,0,0,0,60.626V72.773a2.879,2.879,0,0,0,2.876,2.876H20.644a2.879,2.879,0,0,0,2.876-2.876V60.631A2.875,2.875,0,0,0,20.648,57.75Zm1.562,15.023a1.564,1.564,0,0,1-1.562,1.562H2.876a1.564,1.564,0,0,1-1.562-1.562V60.631a1.564,1.564,0,0,1,1.562-1.562H20.644a1.564,1.564,0,0,1,1.562,1.562V72.773Z" transform="translate(0 -57.75)" fill="#00fff0"/>
      <path id="Path_315" data-name="Path 315" d="M67.872,115.212l5.752-5.158a.658.658,0,1,0-.881-.978l-7.932,7.12-1.548-1.382s-.01-.01-.01-.015a.975.975,0,0,0-.107-.092l-6.3-5.635a.658.658,0,1,0-.876.983l5.82,5.2L56,120.682a.66.66,0,0,0-.029.929.672.672,0,0,0,.482.209.658.658,0,0,0,.448-.175l5.884-5.5,1.6,1.426a.655.655,0,0,0,.876,0l1.64-1.47,5.85,5.558a.659.659,0,0,0,.929-.024.66.66,0,0,0-.024-.93Z" transform="translate(-53.039 -106.413)" fill="#00fff0"/>
    </g>
  </g>
</svg>
