<?xml version="1.0" encoding="utf-8"?>
<!-- Generator: Adobe Illustrator 26.0.0, SVG Export Plug-In . SVG Version: 6.00 Build 0)  -->
<svg version="1.1" id="Layer_1" xmlns="http://www.w3.org/2000/svg" xmlns:xlink="http://www.w3.org/1999/xlink">

<path  d="M0,0c0,0,0,14.3,0,20h7.7v-0.5c0-0.2,0-0.9,0-1.7c-2.9,0.6-3.5-1.4-3.5-1.4
	c-0.2-0.6-0.6-1.2-1.1-1.5c-0.9-0.6,0.1-0.6,0.1-0.6c0.7,0.1,1.2,0.5,1.6,1.1c0.6,1.1,1.9,1.4,3,0.9l0,0c0-0.5,0.3-1,0.6-1.4
	c-2.3-0.3-4.7-1.1-4.7-5.1c0-1,0.4-2,1.1-2.8C4.4,6.1,4.5,5.1,4.9,4.3c0,0,0.9-0.3,2.8,1.1c1.7-0.5,3.4-0.5,5.1,0
	c1.9-1.3,2.8-1.1,2.8-1.1c0.4,0.8,0.4,1.8,0.1,2.7c0.7,0.7,1.1,1.7,1.1,2.8c0,3.9-2.4,4.8-4.7,5.1c0.5,0.5,0.7,1.2,0.7,1.9
	c0,1.4,0,3,0,3.3h7.8V0c0,0-5.8,0-10.3,0"/>
</svg>
