<svg id="linkedin-svgrepo-com" xmlns="http://www.w3.org/2000/svg"  viewBox="0 0 20 20">
  <path id="Path_169" data-name="Path 169" d="M245.975,203.711v-.026c-.005.009-.013.017-.017.026Z" transform="translate(-241.358 -194.73)"  fill-rule="evenodd"/>
  <path id="Path_170" data-name="Path 170" d="M0,0V20H20V0ZM6.221,16.615H3.253V7.688H6.221ZM4.737,6.47h-.02a1.547,1.547,0,1,1,.039-3.085A1.547,1.547,0,1,1,4.737,6.47ZM16.923,16.615H13.955V11.839c0-1.2-.429-2.018-1.5-2.018a1.623,1.623,0,0,0-1.523,1.085,2.034,2.034,0,0,0-.1.723v4.986H7.862s.04-8.09,0-8.927h2.969V8.953a2.948,2.948,0,0,1,2.675-1.475c1.953,0,3.417,1.276,3.417,4.017Z"  fill-rule="evenodd"/>
</svg>
