<svg  viewBox="0 0 1661 1647" fill="none" xmlns="http://www.w3.org/2000/svg">
<path d="M830.146 10.6553C520.496 67.3764 277.038 351.843 234.094 709.821C279.836 452.047 478.305 258.097 716.274 258.097C755.451 258.097 793.552 263.371 830.146 273.273C866.632 263.371 904.841 258.097 943.91 258.097C1181.88 258.097 1380.35 452.047 1426.09 709.821C1383.25 351.843 1139.8 67.3764 830.146 10.6553Z" fill="#005A72"/>
<path d="M694.426 1645.77C701.745 1645.99 708.956 1646.21 716.275 1646.21H694.426V1645.77Z" fill="url(#paint0_linear)"/>
<path d="M944.018 0.323242C935.3 0.323242 926.582 0.538503 917.972 0.861394C888.266 2.04533 858.883 5.38184 830.254 10.6557C803.131 15.6067 776.439 22.3874 750.5 30.7826C750.177 30.8902 749.854 30.9978 749.531 31.1055C747.702 31.6436 745.98 32.2894 744.258 32.8275C742.105 33.4733 740.06 34.2267 737.907 34.9801C733.925 36.3793 729.835 37.7785 725.853 39.2854C725.638 39.393 725.422 39.393 725.207 39.5006C723.377 40.1464 721.655 40.7922 719.826 41.5456C719.503 41.6533 719.18 41.7609 718.965 41.8685C717.027 42.6219 715.198 43.3753 713.26 44.0211C713.045 44.1287 712.83 44.2364 712.615 44.2364C711 44.8822 709.386 45.5279 707.879 46.1737C707.233 46.389 706.587 46.7119 705.941 46.9271C704.435 47.5729 702.928 48.2187 701.421 48.7569C700.883 48.9721 700.452 49.1874 699.914 49.4026C698.085 50.156 696.255 50.9095 694.425 51.7705C692.38 52.6315 690.443 53.4926 688.398 54.3536C688.29 54.3536 688.183 54.4613 688.075 54.4613C686.138 55.3223 684.093 56.1833 682.155 57.0444C680.11 58.013 678.065 58.8741 676.128 59.8428C674.083 60.8115 671.931 61.7801 669.886 62.7488C665.903 64.5785 662.029 66.5159 658.154 68.4532C656.217 69.4219 654.172 70.4982 652.234 71.4668C650.297 72.4355 648.252 73.5118 646.315 74.5881C644.377 75.6644 642.332 76.6331 640.395 77.7094C638.565 78.6781 636.736 79.6467 634.906 80.723C634.691 80.8306 634.368 80.9383 634.153 81.1536C632.323 82.1222 630.493 83.1986 628.664 84.2749C626.834 85.2435 625.112 86.3198 623.39 87.2885C622.852 87.6114 622.421 87.8266 621.883 88.1495C620.484 88.9029 619.084 89.764 617.685 90.5174C617.147 90.8403 616.501 91.2708 615.856 91.5937C614.349 92.4548 612.842 93.4234 611.227 94.2845C609.29 95.4684 607.461 96.6524 605.523 97.7287C602.079 99.8813 598.743 101.926 595.298 104.186C591.101 106.877 586.796 109.676 582.706 112.474C580.984 113.658 579.261 114.842 577.432 116.026C575.602 117.317 573.772 118.501 571.943 119.793C570.113 121.084 568.391 122.268 566.561 123.56C566.454 123.56 566.454 123.668 566.346 123.668C564.624 124.959 562.794 126.143 561.072 127.435C560.965 127.435 560.965 127.542 560.857 127.542C559.027 128.834 557.305 130.125 555.475 131.525C553.646 132.816 551.924 134.215 550.094 135.507C549.986 135.614 549.879 135.615 549.771 135.722C548.049 137.014 546.435 138.305 544.713 139.597C542.452 141.319 540.084 143.149 537.824 144.978C534.811 147.346 531.797 149.822 528.783 152.297C527.384 153.481 525.877 154.665 524.478 155.849C524.048 156.172 523.725 156.495 523.294 156.818C522.11 157.786 521.034 158.755 519.85 159.724C519.204 160.262 518.559 160.8 517.805 161.446C516.298 162.737 514.684 164.137 513.177 165.428C511.67 166.72 510.163 168.119 508.657 169.41C508.334 169.733 508.011 170.056 507.688 170.271C506.181 171.563 504.674 172.962 503.167 174.254C503.06 174.361 502.952 174.469 502.845 174.577C501.23 176.083 499.616 177.483 498.001 178.99C496.279 180.496 494.665 182.003 492.943 183.618C491.436 185.017 489.821 186.524 488.315 187.923C487.776 188.461 487.238 188.891 486.7 189.43C485.516 190.614 484.225 191.798 483.041 192.981C479.812 196.103 476.475 199.332 473.246 202.561C471.632 204.175 470.125 205.682 468.511 207.296L468.403 207.404C467.434 208.373 466.466 209.341 465.497 210.418C464.636 211.279 463.775 212.14 463.022 213.001C461.838 214.185 460.761 215.369 459.577 216.66C459.255 216.983 459.039 217.306 458.717 217.629C457.748 218.597 456.779 219.566 455.918 220.642C454.842 221.826 453.766 222.903 452.689 224.087C451.29 225.593 449.891 227.1 448.492 228.715C447.631 229.576 446.877 230.544 446.016 231.405C445.048 232.374 444.186 233.45 443.325 234.419C442.464 235.388 441.603 236.356 440.742 237.433C431.379 247.98 422.338 258.959 413.405 270.045C412.328 271.444 411.252 272.843 410.176 274.242C409.853 274.673 409.53 274.996 409.207 275.426C408.238 276.61 407.377 277.794 406.409 279.086C405.763 279.947 405.117 280.808 404.471 281.669C403.825 282.53 403.072 283.499 402.426 284.36C401.673 285.436 400.812 286.512 400.058 287.481C399.09 288.772 398.121 290.172 397.152 291.463C397.045 291.678 396.83 291.894 396.722 292.001C395.646 293.401 394.569 294.907 393.493 296.307C392.847 297.275 392.094 298.244 391.448 299.213C390.587 300.396 389.726 301.688 388.865 302.872C388.757 302.98 388.757 303.087 388.65 303.195C387.358 305.025 386.067 306.854 384.775 308.792C380.793 314.496 376.81 320.416 372.936 326.228C372.182 327.304 371.429 328.38 370.783 329.564C370.03 330.641 369.276 331.825 368.631 332.901C367.554 334.623 366.37 336.453 365.294 338.175C364.325 339.682 363.357 341.188 362.496 342.695C361.958 343.449 361.527 344.31 360.989 345.063C360.128 346.462 359.159 347.861 358.298 349.368C358.083 349.799 357.76 350.122 357.545 350.552C356.576 352.167 355.5 353.889 354.531 355.503C354.208 356.041 353.885 356.472 353.67 357.01C352.701 358.732 351.625 360.347 350.656 362.069C350.549 362.176 350.441 362.392 350.334 362.499C349.15 364.437 348.073 366.374 346.889 368.419C345.705 370.464 344.522 372.509 343.338 374.554C342.369 376.383 341.293 378.106 340.324 379.935C339.032 382.195 337.849 384.456 336.557 386.824C335.373 388.976 334.189 391.129 333.005 393.389C332.252 394.788 331.606 396.08 330.853 397.479C329.346 400.385 327.731 403.399 326.225 406.305C325.364 408.027 324.395 409.856 323.534 411.579C323.319 412.009 323.103 412.44 322.888 412.87C321.919 414.807 320.951 416.637 320.09 418.575C319.982 418.79 319.874 419.113 319.767 419.328C318.906 421.158 317.937 422.987 317.076 424.817C316.861 425.355 316.538 425.786 316.323 426.324C315.569 427.831 314.923 429.338 314.17 430.844C313.739 431.813 313.201 432.782 312.771 433.75C312.125 435.15 311.372 436.656 310.726 438.056C310.511 438.486 310.295 438.917 310.188 439.347C309.327 441.285 308.358 443.222 307.497 445.159C306.636 446.989 305.883 448.819 305.022 450.648C304.376 452.048 303.73 453.554 303.084 454.954C302.546 456.138 302.116 457.214 301.577 458.398C297.703 467.439 293.936 476.48 290.276 485.736C289.523 487.781 288.662 489.718 287.908 491.763C287.801 491.978 287.693 492.194 287.693 492.409C287.047 494.023 286.402 495.638 285.864 497.252C285.541 498.221 285.11 499.19 284.787 500.158C284.141 501.773 283.603 503.495 282.957 505.109C282.742 505.647 282.635 506.078 282.419 506.616C281.774 508.446 281.02 510.383 280.374 512.213C280.159 512.751 279.944 513.289 279.836 513.827C279.19 515.549 278.652 517.272 278.007 519.101C277.791 519.639 277.576 520.178 277.468 520.716C276.823 522.653 276.069 524.698 275.423 526.635C274.67 529.003 273.917 531.263 273.056 533.631C271.764 537.721 270.473 541.811 269.181 545.901C268.212 548.915 267.351 551.821 266.382 554.834C265.952 556.234 265.522 557.74 265.091 559.14C264.66 560.539 264.338 561.83 263.907 563.23C263.692 564.091 263.369 564.844 263.154 565.705C262.723 567.212 262.293 568.826 261.862 570.333C261.324 572.271 260.786 574.316 260.248 576.36C259.71 578.405 259.064 580.558 258.526 582.603C258.31 583.249 258.095 584.002 257.987 584.648C257.557 586.478 257.019 588.308 256.588 590.137C256.481 590.675 256.265 591.214 256.158 591.752C255.727 593.581 255.297 595.303 254.759 597.133C254.436 598.209 254.22 599.286 253.897 600.47C253.575 601.977 253.144 603.376 252.821 604.883C252.714 605.421 252.498 605.959 252.391 606.497C251.853 608.542 251.422 610.587 250.992 612.632C249.269 619.951 247.655 627.377 246.148 634.804C245.61 637.279 245.18 639.755 244.641 642.23C244.211 644.168 243.888 646.105 243.565 648.042C243.35 649.011 243.135 649.98 243.027 651.056C242.812 651.917 242.704 652.886 242.489 653.747C242.166 655.576 241.843 657.514 241.52 659.343C241.305 660.312 241.197 661.281 240.982 662.25C240.767 663.541 240.551 664.725 240.336 666.017C240.013 667.631 239.798 669.245 239.475 670.86C239.26 672.152 239.045 673.443 238.829 674.735C238.614 675.811 238.506 676.78 238.291 677.856C238.076 679.363 237.861 680.762 237.645 682.269C237.43 683.776 237.215 685.282 237 686.789C236.892 687.543 236.784 688.188 236.677 688.942C236.462 690.771 236.139 692.494 235.923 694.323C235.17 699.597 234.524 704.871 233.878 710.145C233.448 713.912 232.802 717.572 232.049 721.339C226.775 754.489 223.977 788.715 223.977 823.587C223.977 858.46 226.775 892.686 232.049 925.836C232.802 929.603 233.448 933.37 233.878 937.03C279.621 1194.8 478.197 1388.75 716.059 1388.75C755.236 1388.75 793.337 1383.48 829.931 1373.58C612.95 1314.6 451.613 1090.73 451.613 823.587C451.613 556.449 613.057 332.578 829.931 273.597C866.417 263.695 904.518 258.421 943.803 258.421C1181.77 258.421 1380.24 452.37 1425.98 710.145C1426.52 713.374 1426.95 716.71 1427.06 719.939C1430.83 753.843 1432.66 788.5 1432.66 823.587C1432.66 858.675 1430.72 893.332 1427.06 927.235C1426.84 930.572 1426.52 933.801 1425.98 937.03C1425.55 940.689 1425.12 944.349 1424.58 947.9C1424.37 949.515 1424.15 951.129 1423.94 952.744C1423.83 953.497 1423.72 954.358 1423.61 955.112C1423.4 957.049 1423.08 958.879 1422.75 960.816C1422.65 961.785 1422.43 962.861 1422.32 963.83C1422.11 965.336 1421.89 966.843 1421.57 968.458C1421.46 969.426 1421.25 970.287 1421.14 971.256C1420.92 972.655 1420.71 974.054 1420.49 975.454C1420.28 976.96 1419.96 978.467 1419.74 980.082C1418.77 985.678 1417.8 991.168 1416.83 996.657C1416.4 998.702 1416.08 1000.75 1415.65 1002.79C1415.22 1004.94 1414.79 1006.99 1414.36 1009.14C1414.04 1010.65 1413.71 1012.26 1413.39 1013.77C1413.17 1014.74 1412.96 1015.71 1412.74 1016.68C1412.31 1018.51 1411.99 1020.44 1411.56 1022.27C1411.13 1024.43 1410.59 1026.69 1410.16 1028.84C1409.08 1033.57 1408.01 1038.31 1406.82 1043.05C1406.5 1044.44 1406.18 1045.84 1405.86 1047.24C1405.43 1049.18 1404.89 1051.12 1404.46 1052.95C1404.03 1054.67 1403.6 1056.28 1403.17 1058.01C1402.84 1059.51 1402.41 1060.91 1401.98 1062.42C1401.12 1065.65 1400.26 1068.88 1399.4 1072.11C1398.97 1073.83 1398.43 1075.55 1398 1077.27C1395.42 1086.64 1392.62 1095.89 1389.71 1105.04C1389.39 1106.12 1388.96 1107.3 1388.64 1108.38C1388.1 1109.88 1387.67 1111.5 1387.13 1113.01C1386.81 1113.87 1386.59 1114.73 1386.27 1115.59C1385.84 1117.1 1385.3 1118.49 1384.76 1120C1384.01 1122.15 1383.36 1124.31 1382.61 1126.46C1382.18 1127.86 1381.64 1129.26 1381.21 1130.55C1379.49 1135.5 1377.66 1140.45 1375.83 1145.4C1375.18 1147.34 1374.43 1149.17 1373.67 1151.11C1373.24 1152.18 1372.81 1153.37 1372.38 1154.44C1371.85 1155.95 1371.2 1157.46 1370.66 1158.96C1370.55 1159.39 1370.34 1159.72 1370.23 1160.15C1369.48 1162.08 1368.72 1164.13 1367.86 1166.07C1367.11 1167.79 1366.46 1169.62 1365.71 1171.34C1365.17 1172.74 1364.53 1174.14 1363.99 1175.54C1360.97 1182.96 1357.85 1190.28 1354.52 1197.49C1353.66 1199.43 1352.79 1201.37 1351.93 1203.31C1351.83 1203.63 1351.72 1203.85 1351.5 1204.17C1350.64 1206.11 1349.67 1208.04 1348.81 1210.09C1348.6 1210.52 1348.49 1210.84 1348.27 1211.27C1347.2 1213.53 1346.12 1215.79 1345.05 1218.05C1344.4 1219.45 1343.65 1220.96 1343 1222.36C1342.46 1223.43 1341.92 1224.51 1341.49 1225.59C1339.02 1230.75 1336.44 1235.92 1333.74 1240.98C1332.99 1242.38 1332.35 1243.78 1331.59 1245.18C1330.62 1247 1329.65 1248.83 1328.69 1250.66C1327.93 1252.17 1327.07 1253.68 1326.32 1255.18C1325.35 1256.91 1324.49 1258.63 1323.52 1260.35C1322.66 1261.97 1321.69 1263.58 1320.83 1265.19C1320.4 1265.95 1319.97 1266.7 1319.54 1267.45C1318.35 1269.5 1317.17 1271.54 1315.99 1273.7C1314.91 1275.63 1313.73 1277.57 1312.65 1279.51C1312 1280.69 1311.25 1281.98 1310.5 1283.17C1310.07 1284.03 1309.53 1284.78 1308.99 1285.64C1308.13 1287.15 1307.16 1288.66 1306.3 1290.16C1306.08 1290.49 1305.87 1290.92 1305.65 1291.24C1304.79 1292.64 1304.04 1293.93 1303.18 1295.33C1302.53 1296.41 1301.89 1297.48 1301.13 1298.56C1299.41 1301.36 1297.58 1304.16 1295.86 1306.95C1295 1308.35 1294.14 1309.65 1293.28 1311.04C1292.2 1312.77 1291.12 1314.38 1289.94 1316.1C1289.19 1317.29 1288.32 1318.58 1287.57 1319.76C1286.5 1321.38 1285.42 1322.99 1284.34 1324.71C1283.37 1326.22 1282.3 1327.73 1281.33 1329.23C1281.01 1329.67 1280.68 1330.2 1280.36 1330.63C1279.39 1332.03 1278.42 1333.43 1277.56 1334.72C1277.13 1335.37 1276.7 1335.91 1276.27 1336.55C1275.41 1337.84 1274.55 1339.03 1273.58 1340.32C1273.15 1340.86 1272.72 1341.5 1272.29 1342.15C1271.32 1343.55 1270.35 1344.95 1269.38 1346.24C1266.8 1349.79 1264.22 1353.34 1261.63 1356.9C1260.34 1358.62 1259.05 1360.45 1257.65 1362.17C1256.57 1363.57 1255.5 1364.97 1254.42 1366.37C1253.99 1367.01 1253.56 1367.55 1253.02 1368.2C1252.05 1369.49 1251.08 1370.78 1250.12 1371.96C1249.9 1372.29 1249.58 1372.72 1249.26 1373.04C1248.07 1374.55 1246.89 1376.16 1245.6 1377.67C1240 1384.77 1234.29 1391.66 1228.48 1398.55C1227.62 1399.62 1226.76 1400.59 1225.79 1401.67C1225.25 1402.32 1224.72 1402.96 1224.18 1403.61C1223.21 1404.68 1222.35 1405.76 1221.38 1406.84C1219.98 1408.45 1218.47 1410.06 1217.07 1411.68C1216.32 1412.54 1215.57 1413.4 1214.71 1414.26C1213.74 1415.34 1212.88 1416.31 1211.91 1417.38C1209 1420.61 1205.99 1423.84 1202.97 1427.07C1201.58 1428.58 1200.28 1429.98 1198.88 1431.38C1198.78 1431.48 1198.56 1431.7 1198.45 1431.81C1197.27 1433.1 1196.09 1434.28 1194.79 1435.57C1194.47 1436 1194.04 1436.33 1193.72 1436.76C1192.64 1437.83 1191.57 1438.91 1190.6 1439.99C1189.95 1440.63 1189.31 1441.28 1188.66 1441.92C1187.69 1443 1186.61 1443.97 1185.54 1445.04C1185 1445.58 1184.46 1446.12 1183.92 1446.55C1182.85 1447.63 1181.66 1448.81 1180.59 1449.89C1180.37 1450.1 1180.16 1450.32 1179.94 1450.53C1177.04 1453.44 1174.02 1456.24 1171.01 1459.04C1169.5 1460.54 1167.89 1461.94 1166.27 1463.45C1164.66 1464.96 1163.15 1466.36 1161.54 1467.86C1160.03 1469.26 1158.52 1470.55 1157.02 1471.95C1156.91 1472.06 1156.69 1472.28 1156.59 1472.38C1155.08 1473.78 1153.57 1475.07 1151.96 1476.47C1150.34 1477.87 1148.84 1479.27 1147.22 1480.56C1142.38 1484.76 1137.43 1488.96 1132.48 1493.05C1130.86 1494.45 1129.14 1495.74 1127.53 1497.03C1126.02 1498.21 1124.62 1499.4 1123.11 1500.58C1122.79 1500.9 1122.36 1501.12 1122.04 1501.44C1120.53 1502.63 1119.02 1503.81 1117.52 1504.99C1116.01 1506.18 1114.61 1507.25 1113.1 1508.44C1112.57 1508.87 1111.92 1509.3 1111.38 1509.73C1110.09 1510.7 1108.8 1511.67 1107.51 1512.74C1106.22 1513.71 1104.92 1514.68 1103.63 1515.65C1099.76 1518.45 1095.99 1521.25 1092.01 1524.05C1088.67 1526.41 1085.34 1528.78 1081.89 1531.04C1081.68 1531.15 1081.46 1531.36 1081.14 1531.47C1079.52 1532.55 1077.91 1533.62 1076.29 1534.7C1074.68 1535.78 1073.07 1536.85 1071.34 1537.93C1069.51 1539.22 1067.58 1540.4 1065.75 1541.59C1062.2 1543.85 1058.64 1546.11 1055.09 1548.37C1053.58 1549.34 1051.97 1550.31 1050.36 1551.28C1049.93 1551.49 1049.6 1551.71 1049.17 1551.92C1047.56 1552.89 1045.84 1553.97 1044.22 1554.94C1042.5 1556.01 1040.78 1556.98 1039.05 1557.95C1038.84 1558.06 1038.62 1558.16 1038.41 1558.38C1036.69 1559.35 1035.07 1560.32 1033.35 1561.29C1031.52 1562.36 1029.69 1563.33 1027.86 1564.41C1024.2 1566.45 1020.54 1568.5 1016.78 1570.43C1013.22 1572.37 1009.56 1574.2 1005.9 1576.03C1005.69 1576.14 1005.37 1576.25 1005.15 1576.46C1003.54 1577.32 1001.92 1578.08 1000.31 1578.94C1000.09 1579.04 999.77 1579.26 999.447 1579.37C997.725 1580.23 996.003 1581.09 994.281 1581.95C988.577 1584.75 982.872 1587.33 977.168 1589.92C975.23 1590.78 973.293 1591.64 971.464 1592.5C969.526 1593.36 967.589 1594.22 965.652 1594.97C963.714 1595.83 961.777 1596.59 959.839 1597.45C957.902 1598.2 955.965 1599.06 954.027 1599.82C914.097 1615.96 872.552 1628.12 829.823 1635.98C792.798 1642.76 754.698 1646.31 715.951 1646.31H954.027V1646.21C1345.05 1639.75 1660.18 1273.91 1660.18 823.372C1660.62 368.742 1339.77 0.323242 944.018 0.323242Z" fill="url(#paint1_linear)"/>
<path d="M1427.28 719.616C1426.95 716.387 1426.52 713.051 1426.2 709.822C1380.46 452.047 1181.99 258.097 944.019 258.097C904.841 258.097 866.74 263.371 830.146 273.273C1047.02 332.255 1208.46 556.126 1208.46 823.264C1208.46 1090.4 1047.02 1314.27 830.146 1373.25C793.552 1383.16 755.559 1388.43 716.274 1388.43C478.305 1388.43 279.837 1194.48 234.094 936.706C233.448 932.939 232.803 929.28 232.264 925.513C226.991 892.363 224.192 858.136 224.192 823.264C224.192 788.392 226.991 754.165 232.264 721.015C232.803 717.248 233.448 713.481 234.094 709.822C234.74 704.548 235.386 699.274 236.139 694C236.354 692.17 236.677 690.448 236.893 688.619C237 687.865 237.108 687.219 237.215 686.466C237.431 684.959 237.646 683.452 237.861 681.945C238.076 680.439 238.292 678.932 238.507 677.533C238.615 676.456 238.83 675.488 239.045 674.411C239.26 673.12 239.476 671.828 239.691 670.537C239.906 668.922 240.229 667.308 240.552 665.693C240.767 664.402 240.983 663.218 241.198 661.926C241.305 660.958 241.521 659.989 241.736 659.02C242.059 657.191 242.382 655.253 242.704 653.423C242.812 652.562 243.027 651.594 243.243 650.733C243.458 649.764 243.566 648.688 243.781 647.719C244.104 645.782 244.534 643.844 244.857 641.907C245.395 639.432 245.826 636.956 246.364 634.481C247.871 627.054 249.485 619.735 251.207 612.309C251.638 610.264 252.176 608.219 252.606 606.174C252.714 605.636 252.822 605.098 253.037 604.559C253.36 603.053 253.79 601.653 254.113 600.146C254.329 599.07 254.651 597.994 254.974 596.81C255.405 594.98 255.835 593.258 256.374 591.428C256.481 590.89 256.696 590.352 256.804 589.814C257.235 587.984 257.773 586.155 258.203 584.325C258.418 583.571 258.526 582.926 258.741 582.28C259.279 580.235 259.818 578.082 260.463 576.037C261.002 573.992 261.54 572.055 262.078 570.01C262.508 568.503 262.939 566.889 263.369 565.382C263.585 564.521 263.8 563.767 264.123 562.906C264.553 561.507 264.876 560.216 265.307 558.817C265.737 557.417 266.168 555.911 266.598 554.511C267.459 551.498 268.428 548.484 269.397 545.578C270.688 541.488 271.98 537.398 273.271 533.308C274.025 530.94 274.778 528.68 275.639 526.312C276.285 524.375 276.931 522.33 277.684 520.392C277.899 519.854 278.007 519.316 278.222 518.778C278.868 517.056 279.406 515.226 280.052 513.504C280.267 512.966 280.375 512.428 280.59 511.89C281.236 510.06 281.882 508.123 282.635 506.293C282.85 505.755 282.958 505.324 283.173 504.786C283.819 503.172 284.357 501.45 285.003 499.835C285.326 498.866 285.756 497.898 286.079 496.929C286.725 495.315 287.263 493.7 287.909 492.086C288.017 491.87 288.124 491.655 288.124 491.44C288.878 489.395 289.631 487.458 290.492 485.413C294.044 476.264 297.811 467.115 301.793 458.074C302.331 456.891 302.762 455.814 303.3 454.63C303.946 453.124 304.592 451.724 305.237 450.325C306.098 448.495 306.852 446.666 307.713 444.836C308.574 442.899 309.435 440.961 310.403 439.024C310.619 438.593 310.834 438.163 310.942 437.732C311.587 436.333 312.233 434.826 312.987 433.427C313.417 432.459 313.848 431.49 314.386 430.521C315.032 429.014 315.785 427.508 316.538 426.001C316.754 425.463 316.969 425.032 317.292 424.494C318.153 422.664 319.121 420.834 319.983 419.005C320.09 418.79 320.198 418.467 320.305 418.251C321.274 416.314 322.135 414.484 323.104 412.547C323.319 412.116 323.534 411.686 323.75 411.255C324.611 409.533 325.472 407.704 326.44 405.982C327.947 402.968 329.454 400.062 331.068 397.156C331.822 395.757 332.468 394.465 333.221 393.066C334.405 390.913 335.589 388.761 336.773 386.5C338.064 384.24 339.248 381.98 340.54 379.612C341.508 377.782 342.585 376.06 343.553 374.231C344.737 372.186 345.921 370.141 347.105 368.096C348.289 366.158 349.365 364.113 350.549 362.176C350.657 362.068 350.765 361.853 350.872 361.745C351.841 360.023 352.917 358.409 353.886 356.687C354.209 356.149 354.424 355.718 354.747 355.18C355.716 353.565 356.792 351.843 357.76 350.229C357.976 349.798 358.191 349.476 358.514 349.045C359.375 347.646 360.236 346.139 361.205 344.74C361.743 343.986 362.173 343.125 362.711 342.372C363.68 340.865 364.541 339.358 365.51 337.852C366.586 336.129 367.77 334.3 368.846 332.578C369.6 331.501 370.353 330.317 370.999 329.241C371.752 328.165 372.398 326.981 373.152 325.905C377.026 319.985 381.008 314.173 384.991 308.468C386.282 306.639 387.574 304.809 388.865 302.872C388.973 302.764 388.973 302.656 389.081 302.549C389.942 301.365 390.803 300.073 391.664 298.889C392.31 297.921 393.063 296.952 393.709 295.983C394.785 294.476 395.861 293.077 396.938 291.678C397.045 291.463 397.261 291.248 397.368 291.14C398.337 289.848 399.305 288.449 400.274 287.158C401.028 286.081 401.889 285.005 402.642 284.036C403.288 283.068 404.041 282.207 404.687 281.346C405.333 280.485 405.979 279.623 406.624 278.762C407.593 277.579 408.454 276.287 409.423 275.103C409.746 274.672 410.068 274.35 410.391 273.919C411.468 272.52 412.544 271.121 413.62 269.721C422.446 258.528 431.594 247.657 440.958 237.11C441.819 236.141 442.68 235.172 443.541 234.096C444.402 233.127 445.371 232.051 446.232 231.082C446.985 230.221 447.846 229.253 448.707 228.392C450.107 226.885 451.506 225.27 452.905 223.763C453.981 222.579 455.058 221.503 456.134 220.319C457.103 219.351 457.964 218.274 458.932 217.306C459.255 216.983 459.47 216.66 459.793 216.337C460.977 215.153 462.053 213.861 463.237 212.677C464.098 211.816 464.96 210.955 465.713 210.094C466.682 209.126 467.65 208.157 468.619 207.081L468.726 206.973C470.341 205.359 471.848 203.744 473.462 202.237C476.691 199.008 479.92 195.779 483.256 192.658C484.44 191.474 485.732 190.29 486.916 189.106C487.454 188.568 487.992 188.138 488.53 187.6C490.037 186.093 491.652 184.694 493.158 183.294C494.773 181.788 496.495 180.173 498.217 178.666C499.831 177.159 501.446 175.76 503.06 174.253C503.168 174.146 503.276 174.038 503.383 173.931C504.89 172.639 506.397 171.24 507.904 169.948C508.227 169.625 508.549 169.41 508.872 169.087C510.379 167.796 511.886 166.396 513.393 165.105C514.9 163.813 516.514 162.414 518.021 161.123C518.667 160.584 519.312 160.046 520.066 159.4C521.142 158.432 522.326 157.463 523.51 156.494C523.94 156.172 524.263 155.849 524.694 155.526C526.093 154.342 527.6 153.158 528.999 151.974C532.013 149.498 535.026 147.023 538.04 144.655C540.3 142.825 542.56 141.103 544.928 139.274C546.543 137.982 548.265 136.691 549.987 135.399C550.094 135.291 550.202 135.291 550.31 135.184C552.032 133.892 553.861 132.493 555.691 131.201C557.521 129.91 559.243 128.618 561.073 127.219C561.073 127.219 561.18 127.111 561.288 127.111C563.01 125.82 564.84 124.636 566.562 123.344C566.669 123.344 566.669 123.237 566.777 123.237C568.607 121.945 570.329 120.654 572.159 119.47C573.988 118.178 575.818 116.886 577.648 115.703C579.37 114.519 581.092 113.335 582.921 112.151C587.119 109.352 591.317 106.554 595.514 103.863C598.958 101.711 602.295 99.558 605.739 97.4054C607.676 96.2215 609.506 95.0376 611.443 93.9613C612.95 92.9926 614.457 92.1316 616.071 91.2705C616.609 90.9476 617.255 90.5171 617.901 90.1942C619.3 89.3332 620.699 88.5798 622.099 87.8264C622.637 87.5035 623.067 87.2882 623.605 86.9653C625.327 85.9967 627.157 84.9203 628.879 83.9516C630.709 82.8753 632.539 81.9067 634.368 80.8304C634.584 80.7228 634.907 80.6151 635.122 80.3998C636.952 79.4312 638.781 78.3549 640.611 77.3862C642.548 76.3099 644.486 75.3412 646.531 74.2649C648.468 73.1886 650.513 72.22 652.45 71.1437C654.387 70.175 656.432 69.0987 658.37 68.13C662.244 66.1927 666.227 64.2553 670.101 62.4256C672.146 61.4569 674.299 60.4883 676.344 59.5196C678.389 58.5509 680.326 57.6898 682.371 56.7212C684.308 55.8601 686.353 54.9991 688.291 54.1381C688.398 54.1381 688.506 54.0304 688.614 54.0304C690.659 53.1694 692.596 52.3084 694.641 51.4473C696.471 50.6939 698.3 49.9405 700.13 49.0795C700.668 48.8642 701.099 48.6489 701.637 48.4336C703.144 47.7878 704.65 47.1421 706.157 46.604C706.803 46.3887 707.449 46.0658 708.095 45.8505C709.709 45.2048 711.216 44.559 712.83 43.9132C713.046 43.8056 713.261 43.6979 713.476 43.6979C715.413 42.9445 717.243 42.1911 719.18 41.5453C719.503 41.4377 719.718 41.3301 720.041 41.2225C721.871 40.5767 723.593 39.9309 725.423 39.1775C725.638 39.0698 725.853 39.0698 726.069 38.9622C730.051 37.4554 734.141 36.0562 738.123 34.657C740.276 33.9036 742.321 33.2578 744.473 32.5044C746.195 31.9662 748.025 31.3205 749.747 30.7823C750.07 30.6747 750.393 30.5671 750.716 30.4594C776.762 22.0643 803.347 15.3912 830.469 10.3325C859.206 5.05866 888.482 1.72208 918.187 0.538151V0H716.597C320.844 0 0 368.418 0 822.941C0 1269.07 309.112 1632.21 694.748 1645.45C702.067 1645.67 709.278 1645.88 716.597 1645.88C755.344 1645.88 793.337 1642.33 830.469 1635.55C873.306 1627.69 914.851 1615.53 954.674 1599.39C956.611 1598.63 958.548 1597.77 960.486 1597.02C962.423 1596.16 964.36 1595.4 966.298 1594.54C968.235 1593.68 970.172 1592.93 972.11 1592.07C974.047 1591.21 975.984 1590.35 977.814 1589.48C983.518 1586.9 989.223 1584.21 994.927 1581.52C996.649 1580.66 998.371 1579.8 1000.09 1578.94C1000.42 1578.83 1000.63 1578.72 1000.95 1578.51C1002.57 1577.75 1004.18 1576.89 1005.8 1576.03C1006.01 1575.92 1006.34 1575.82 1006.55 1575.6C1010.21 1573.77 1013.76 1571.83 1017.42 1570C1021.19 1568.07 1024.85 1566.02 1028.51 1563.98C1030.34 1563.01 1032.17 1561.93 1034 1560.85C1035.72 1559.89 1037.33 1558.92 1039.06 1557.95C1039.27 1557.84 1039.49 1557.73 1039.7 1557.52C1041.42 1556.55 1043.15 1555.47 1044.87 1554.5C1046.48 1553.54 1048.2 1552.57 1049.82 1551.49C1050.25 1551.28 1050.57 1551.06 1051 1550.84C1052.62 1549.88 1054.12 1548.91 1055.74 1547.94C1059.29 1545.79 1062.84 1543.53 1066.39 1541.16C1068.33 1539.97 1070.16 1538.68 1071.99 1537.5C1073.6 1536.42 1075.33 1535.35 1076.94 1534.27C1078.56 1533.19 1080.17 1532.12 1081.78 1531.04C1082 1530.93 1082.21 1530.72 1082.54 1530.61C1085.87 1528.35 1089.32 1525.98 1092.65 1523.61C1096.53 1520.82 1100.4 1518.02 1104.28 1515.22C1105.57 1514.25 1106.86 1513.28 1108.15 1512.31C1109.45 1511.34 1110.74 1510.38 1112.03 1509.3C1112.57 1508.87 1113.21 1508.44 1113.75 1508.01C1115.26 1506.82 1116.76 1505.75 1118.16 1504.56C1119.67 1503.38 1121.18 1502.2 1122.68 1501.01C1123.01 1500.69 1123.44 1500.47 1123.76 1500.15C1125.27 1498.97 1126.67 1497.78 1128.17 1496.6C1129.79 1495.31 1131.51 1493.91 1133.12 1492.62C1138.07 1488.53 1143.03 1484.33 1147.87 1480.13C1149.48 1478.73 1150.99 1477.33 1152.6 1476.04C1154.11 1474.64 1155.62 1473.35 1157.23 1471.95C1157.34 1471.84 1157.56 1471.74 1157.66 1471.52C1159.17 1470.12 1160.68 1468.83 1162.18 1467.43C1163.8 1466.03 1165.3 1464.53 1166.92 1463.02C1168.53 1461.62 1170.04 1460.11 1171.65 1458.61C1174.67 1455.81 1177.57 1452.9 1180.59 1450.1C1180.8 1449.89 1181.02 1449.67 1181.23 1449.46C1182.31 1448.38 1183.49 1447.2 1184.57 1446.12C1185.11 1445.58 1185.65 1445.15 1186.18 1444.61C1187.26 1443.65 1188.23 1442.57 1189.31 1441.49C1189.95 1440.85 1190.6 1440.2 1191.24 1439.56C1192.32 1438.48 1193.4 1437.4 1194.36 1436.33C1194.8 1435.9 1195.12 1435.57 1195.44 1435.14C1196.62 1433.85 1197.92 1432.67 1199.1 1431.38C1199.21 1431.27 1199.42 1431.05 1199.53 1430.94C1200.93 1429.55 1202.33 1428.04 1203.62 1426.64C1206.63 1423.41 1209.65 1420.18 1212.55 1416.95C1213.52 1415.88 1214.38 1414.91 1215.35 1413.83C1216.11 1412.97 1216.86 1412.11 1217.72 1411.25C1219.23 1409.63 1220.63 1408.02 1222.03 1406.41C1222.99 1405.33 1223.86 1404.25 1224.82 1403.18C1225.36 1402.53 1225.9 1401.88 1226.44 1401.24C1227.3 1400.16 1228.27 1399.19 1229.13 1398.12C1234.94 1391.34 1240.65 1384.34 1246.24 1377.24C1247.43 1375.73 1248.72 1374.22 1249.9 1372.61C1250.22 1372.29 1250.44 1371.86 1250.76 1371.53C1251.73 1370.24 1252.7 1368.95 1253.67 1367.77C1254.1 1367.23 1254.64 1366.58 1255.07 1365.94C1256.14 1364.54 1257.22 1363.14 1258.3 1361.74C1259.59 1360.02 1260.99 1358.19 1262.28 1356.46C1264.86 1352.91 1267.55 1349.36 1270.03 1345.81C1271 1344.41 1271.97 1343.12 1272.93 1341.72C1273.36 1341.18 1273.8 1340.54 1274.23 1339.89C1275.09 1338.6 1276.06 1337.41 1276.92 1336.12C1277.35 1335.48 1277.78 1334.94 1278.21 1334.29C1279.18 1332.89 1280.15 1331.49 1281.01 1330.2C1281.33 1329.77 1281.65 1329.23 1281.98 1328.8C1282.94 1327.3 1284.02 1325.79 1284.99 1324.28C1286.06 1322.67 1287.14 1321.05 1288.22 1319.33C1289.08 1318.15 1289.83 1316.86 1290.59 1315.67C1291.66 1313.95 1292.85 1312.34 1293.92 1310.61C1294.78 1309.21 1295.64 1307.92 1296.51 1306.52C1298.33 1303.73 1300.06 1300.93 1301.78 1298.13C1302.42 1297.05 1303.07 1295.98 1303.82 1294.9C1304.68 1293.61 1305.44 1292.21 1306.3 1290.81C1306.51 1290.49 1306.73 1290.06 1306.95 1289.73C1307.81 1288.23 1308.77 1286.72 1309.64 1285.21C1310.17 1284.35 1310.6 1283.6 1311.14 1282.74C1311.9 1281.55 1312.54 1280.26 1313.3 1279.08C1314.48 1277.14 1315.56 1275.2 1316.63 1273.27C1317.82 1271.22 1319 1269.18 1320.18 1267.02C1320.61 1266.27 1321.04 1265.52 1321.48 1264.76C1322.34 1263.15 1323.3 1261.53 1324.17 1259.92C1325.13 1258.2 1326 1256.48 1326.96 1254.75C1327.83 1253.25 1328.58 1251.74 1329.33 1250.23C1330.3 1248.4 1331.27 1246.57 1332.24 1244.74C1332.99 1243.35 1333.74 1241.95 1334.39 1240.55C1337.08 1235.49 1339.66 1230.32 1342.14 1225.16C1342.68 1224.08 1343.22 1223 1343.65 1221.93C1344.29 1220.53 1345.05 1219.02 1345.69 1217.62C1346.77 1215.36 1347.84 1213.1 1348.92 1210.84C1349.14 1210.41 1349.35 1210.09 1349.46 1209.66C1350.43 1207.72 1351.29 1205.78 1352.15 1203.74C1352.26 1203.41 1352.47 1203.2 1352.58 1202.88C1353.44 1200.94 1354.3 1199 1355.16 1197.06C1358.39 1189.85 1361.51 1182.43 1364.63 1175.11C1365.17 1173.71 1365.82 1172.31 1366.36 1170.91C1367.11 1169.19 1367.76 1167.36 1368.51 1165.64C1369.26 1163.7 1370.02 1161.76 1370.88 1159.72C1370.98 1159.29 1371.2 1158.96 1371.31 1158.53C1371.95 1157.03 1372.49 1155.52 1373.03 1154.01C1373.46 1152.94 1373.89 1151.75 1374.32 1150.68C1375.07 1148.74 1375.72 1146.91 1376.47 1144.97C1378.3 1140.02 1380.13 1135.07 1381.86 1130.12C1382.39 1128.72 1382.82 1127.32 1383.25 1126.03C1384.01 1123.88 1384.76 1121.72 1385.41 1119.57C1385.95 1118.06 1386.38 1116.66 1386.91 1115.16C1387.24 1114.3 1387.45 1113.44 1387.78 1112.57C1388.31 1111.07 1388.74 1109.45 1389.28 1107.95C1389.6 1106.87 1390.04 1105.69 1390.36 1104.61C1393.26 1095.46 1396.06 1086.2 1398.65 1076.84C1399.18 1075.12 1399.61 1073.4 1400.04 1071.67C1400.91 1068.45 1401.77 1065.22 1402.63 1061.99C1403.06 1060.48 1403.38 1059.08 1403.81 1057.58C1404.24 1055.96 1404.67 1054.24 1405.1 1052.52C1405.64 1050.58 1406.07 1048.64 1406.5 1046.81C1406.83 1045.41 1407.15 1044.01 1407.47 1042.61C1408.66 1037.88 1409.73 1033.14 1410.81 1028.41C1411.35 1026.25 1411.78 1023.99 1412.21 1021.84C1412.64 1020.01 1412.96 1018.07 1413.39 1016.25C1413.61 1015.28 1413.82 1014.31 1414.04 1013.34C1414.36 1011.83 1414.68 1010.22 1415.01 1008.71C1415.44 1006.56 1415.87 1004.51 1416.3 1002.36C1416.73 1000.32 1417.05 998.271 1417.48 996.226C1418.56 990.737 1419.53 985.14 1420.39 979.651C1420.6 978.144 1420.92 976.637 1421.14 975.023C1421.36 973.624 1421.57 972.224 1421.79 970.825C1421.89 969.857 1422.11 968.996 1422.22 968.027C1422.43 966.52 1422.75 965.013 1422.97 963.399C1423.08 962.43 1423.29 961.354 1423.4 960.385C1423.72 958.448 1423.94 956.618 1424.26 954.681C1424.37 953.927 1424.48 953.066 1424.58 952.313C1424.8 950.698 1425.01 949.084 1425.23 947.469C1425.77 943.81 1426.2 940.258 1426.63 936.599C1427.06 933.37 1427.38 930.033 1427.71 926.804C1431.47 892.901 1433.3 858.244 1433.3 823.156C1432.98 788.177 1431.04 753.52 1427.28 719.616Z" fill="url(#paint2_linear)"/>
<defs>
<linearGradient id="paint0_linear" x1="694.425" y1="1646.01" x2="716.323" y2="1646.01" gradientUnits="userSpaceOnUse">
<stop stop-color="#0088AA"/>
<stop offset="1" stop-color="#014557"/>
</linearGradient>
<linearGradient id="paint1_linear" x1="1140.31" y1="617.99" x2="-122.049" y2="1937.72" gradientUnits="userSpaceOnUse">
<stop stop-color="#00FFF0"/>
<stop offset="0.6687" stop-color="#AF2BFF"/>
<stop offset="1" stop-color="#0012B8"/>
</linearGradient>
<linearGradient id="paint2_linear" x1="473.018" y1="1273.87" x2="1190.27" y2="-54.4793" gradientUnits="userSpaceOnUse">
<stop stop-color="#00FFF0"/>
<stop offset="0.6687" stop-color="#AF2BFF"/>
<stop offset="1" stop-color="#0012B8"/>
</linearGradient>
</defs>
</svg>
