<svg xmlns="http://www.w3.org/2000/svg" xmlns:xlink="http://www.w3.org/1999/xlink" viewBox="0 0 71.869 25.131">
  <defs>
    <linearGradient id="linear-gradient" x1="0.966" y1="0.89" x2="0.55" y2="-0.261" gradientUnits="objectBoundingBox">
      <stop offset="0" stop-color="#77fff7"/>
      <stop offset="0.263" stop-color="#77fff7"/>
      <stop offset="0.681" stop-color="#af2bff"/>
      <stop offset="1" stop-color="#af2bff"/>
    </linearGradient>
    <linearGradient id="linear-gradient-2" x1="0.034" y1="0.146" x2="0.904" y2="0.831" gradientUnits="objectBoundingBox">
      <stop offset="0.274" stop-color="#77fff7"/>
      <stop offset="0.324" stop-color="#9af8ce"/>
      <stop offset="0.387" stop-color="#c1f0a0"/>
      <stop offset="0.443" stop-color="#ddeb7f"/>
      <stop offset="0.489" stop-color="#efe76a"/>
      <stop offset="0.52" stop-color="#f5e663"/>
      <stop offset="0.559" stop-color="#f3e167"/>
      <stop offset="0.603" stop-color="#eed472"/>
      <stop offset="0.649" stop-color="#e6bd85"/>
      <stop offset="0.697" stop-color="#da9da0"/>
      <stop offset="0.746" stop-color="#cb75c2"/>
      <stop offset="0.796" stop-color="#b843eb"/>
      <stop offset="0.818" stop-color="#af2bff"/>
    </linearGradient>
  </defs>
  <g id="Group_268" data-name="Group 268" transform="translate(1890)">
    <path id="Path_212" data-name="Path 212" d="M16.535,28.694c.114,0,.225.007.339.007h-.339Z" transform="translate(-1892.206 -3.829)" />
    <path id="Path_213" data-name="Path 213" d="M37.474,15.3V5.8h2.817v9.615a3.249,3.249,0,0,0,.736,2.25,2.815,2.815,0,0,0,2.208.821,2.881,2.881,0,0,0,2.234-.81,3.228,3.228,0,0,0,.741-2.261V5.8h2.8v9.5a6.327,6.327,0,0,1-.4,2.314,4.892,4.892,0,0,1-1.149,1.758,5.077,5.077,0,0,1-1.811,1.117,7.584,7.584,0,0,1-4.813,0,5.22,5.22,0,0,1-1.811-1.107,4.7,4.7,0,0,1-1.149-1.747,6.466,6.466,0,0,1-.4-2.336Zm15.017,5.252V5.8h6A4.749,4.749,0,0,1,61.989,6.94a4.92,4.92,0,0,1,1.132,3.6,4.634,4.634,0,0,1-1.26,3.532,4.667,4.667,0,0,1-3.345,1.191H55.307v5.295Zm2.816-7.678h3.5a1.346,1.346,0,0,0,1.064-.371,1.635,1.635,0,0,0,.323-1.1V9.581a1.534,1.534,0,0,0-.3-1.064A1.455,1.455,0,0,0,58.8,8.194h-3.5ZM64.2,5.8H67.39l3.167,6.12L73.723,5.8h3.146l-4.924,8.98v5.771H69.127V14.781Z" transform="translate(-1895 -0.774)" />
    <path id="Path_214" data-name="Path 214" d="M15.132.007c-.135,0-.269,0-.4.008a9.783,9.783,0,0,0-2.587.458l-.015,0L12.046.5c-.033.01-.065.021-.1.033-.062.021-.125.042-.186.066l-.01,0-.083.031-.013,0c-.03.011-.058.024-.088.033l-.01,0-.072.03-.03.011c-.024.01-.046.02-.07.028l-.024.01-.085.036-.093.039-.005,0-.092.039-.093.042-.1.044c-.062.028-.121.058-.181.087l-.092.046c-.03.015-.062.031-.092.048s-.061.031-.092.048-.057.03-.085.046a.037.037,0,0,0-.012.007c-.028.015-.057.031-.085.048s-.055.031-.081.046l-.024.013-.065.036-.028.016c-.024.013-.046.028-.072.041s-.058.036-.088.052c-.053.033-.1.064-.158.1s-.131.084-.194.127l-.081.054-.085.058L9.3,1.891s0,0,0,0c-.027.02-.055.038-.081.058l0,0-.083.061c-.028.021-.055.041-.083.061l-.005,0-.078.059c-.035.026-.072.054-.106.082l-.14.112-.067.054L8.63,2.4l-.053.044-.032.026-.072.061c-.024.02-.046.041-.07.061L8.388,2.6c-.024.02-.046.041-.07.061l-.005,0c-.024.024-.05.044-.075.067l-.078.071-.072.066a.258.258,0,0,0-.024.024l-.057.054c-.05.048-.1.1-.151.146l-.072.072,0,0c-.015.015-.03.03-.045.046s-.027.026-.038.039-.035.036-.053.056l-.013.015a.568.568,0,0,0-.043.046l-.05.052L7.474,3.5c-.013.013-.024.028-.038.041a.608.608,0,0,0-.041.046l-.04.046c-.145.161-.284.328-.422.5l-.05.064-.015.018c-.015.018-.028.036-.043.056l-.03.039-.032.041c-.011.016-.024.033-.036.048s-.03.041-.045.061l-.007.008-.05.066-.032.044-.04.056,0,0c-.02.028-.04.056-.06.086-.061.087-.123.178-.183.266a.476.476,0,0,0-.033.051.564.564,0,0,0-.033.051l-.052.08c-.017.026-.03.046-.043.069s-.015.024-.024.036-.028.042-.042.066c0,.007-.008.011-.011.018l-.046.076a.145.145,0,0,0-.013.024c-.015.026-.032.051-.046.077l-.005.007c-.018.03-.035.059-.053.09l-.055.094c-.015.028-.032.054-.046.082s-.038.069-.058.105l-.055.1-.033.062-.072.135-.042.08-.01.02c-.015.03-.03.058-.043.087l-.005.011c-.013.028-.028.056-.042.084,0,.008-.008.015-.011.024L5.4,6.586c-.007.015-.015.03-.022.044L5.346,6.7a.1.1,0,0,0-.008.02c-.013.03-.028.059-.042.089s-.024.056-.038.084l-.03.066c-.01.021-.015.034-.024.052-.06.138-.118.276-.174.417-.011.031-.024.061-.037.092a.023.023,0,0,0,0,.01c-.01.024-.02.048-.028.074s-.011.03-.017.044-.018.051-.028.076c0,.008-.005.015-.008.024-.01.028-.022.058-.032.086a.143.143,0,0,0-.008.024c-.01.026-.018.052-.028.08a.144.144,0,0,0-.008.024c-.01.03-.022.061-.032.09s-.024.071-.036.107l-.06.187c-.015.046-.028.09-.043.136l-.02.066c-.007.021-.011.041-.018.062s-.008.024-.011.038-.013.048-.02.071-.017.061-.024.092-.018.064-.027.1a.228.228,0,0,0-.008.031c-.007.028-.015.056-.022.084,0,.008-.005.016-.007.024-.007.028-.013.054-.022.082s-.008.033-.013.051-.011.044-.017.068c0,.008-.005.016-.007.024-.008.031-.015.062-.022.094-.027.112-.052.225-.075.338-.008.038-.015.076-.024.113s-.011.059-.017.089a.39.39,0,0,0-.008.046c0,.013-.005.028-.008.041s-.01.058-.015.086-.005.03-.008.044l-.01.058c-.005.024-.008.048-.013.074l-.01.059c0,.016-.005.031-.008.048s-.007.044-.01.068l-.01.069-.005.033c0,.028-.008.054-.011.082-.011.08-.022.161-.032.241-.007.058-.017.114-.028.171a9.826,9.826,0,0,0,0,3.122c.011.058.022.115.028.171.708,3.934,3.776,6.894,7.451,6.894a6.807,6.807,0,0,0,1.758-.231c-3.352-.9-5.844-4.318-5.844-8.4s2.5-7.5,5.848-8.4a6.78,6.78,0,0,1,1.758-.232c3.676,0,6.742,2.961,7.449,6.9a1.124,1.124,0,0,1,.017.15,14.073,14.073,0,0,1,.088,1.582,14.607,14.607,0,0,1-.086,1.582,1.469,1.469,0,0,1-.017.149c-.007.056-.013.112-.022.166,0,.024-.007.048-.01.074l-.005.036c0,.03-.008.058-.013.087s-.005.031-.007.046-.007.046-.012.071-.005.028-.007.043-.007.042-.01.064-.008.046-.012.071c-.015.086-.03.169-.045.253-.007.031-.012.062-.018.094l-.02.1-.015.071-.01.044c-.007.028-.012.057-.018.085s-.015.068-.022.1c-.017.072-.033.145-.051.217l-.015.064c-.007.03-.015.059-.022.087s-.013.051-.02.077-.012.044-.018.068l-.04.148c-.007.026-.015.052-.022.079-.04.143-.083.284-.128.424-.005.016-.011.034-.016.051s-.015.048-.024.071-.008.026-.013.04a.6.6,0,0,1-.024.067c-.011.033-.022.066-.033.1s-.015.043-.022.062c-.027.076-.055.151-.083.227-.01.03-.022.058-.033.087l-.02.051c-.008.024-.018.046-.027.069,0,.007-.005.011-.007.018-.012.029-.024.061-.037.09s-.022.054-.033.08-.018.043-.027.064c-.047.113-.095.225-.146.335l-.04.089a.043.043,0,0,1-.007.013c-.013.03-.028.059-.041.09l-.008.018-.05.1-.032.066-.024.048c-.038.079-.078.158-.12.235-.012.021-.021.043-.033.064l-.045.083c-.012.024-.024.046-.037.069s-.028.053-.043.079-.028.048-.041.074l-.02.034c-.018.031-.036.062-.055.1s-.035.059-.052.089-.022.038-.033.056a.3.3,0,0,1-.024.038c-.013.024-.028.046-.041.069,0,.005-.007.012-.01.016-.013.021-.024.041-.038.062s-.02.033-.032.048l-.081.128-.04.062c-.017.027-.033.051-.052.077s-.024.038-.036.056-.033.048-.05.076-.032.046-.046.069l-.015.021-.043.062-.02.028c-.013.02-.027.038-.041.058s-.013.018-.02.028-.03.042-.045.062l-.121.163c-.02.026-.04.054-.061.081l-.05.064a.329.329,0,0,1-.022.028c-.015.02-.03.039-.045.057a.107.107,0,0,1-.013.016c-.018.024-.037.048-.057.071-.086.108-.175.214-.265.319l-.041.048-.024.03c-.015.016-.028.033-.043.048s-.045.048-.067.074l-.036.04-.043.048-.138.148c-.021.024-.041.044-.063.066l-.007.007c-.018.02-.036.038-.057.057-.005.007-.012.012-.017.018l-.048.048-.03.029c-.015.016-.032.031-.048.048l-.024.024-.051.051-.01.01c-.045.044-.092.087-.138.13-.024.024-.048.044-.072.067l-.072.067-.07.062-.007.007-.072.062-.072.062c-.075.064-.151.128-.228.191-.024.021-.051.041-.076.061l-.068.054-.017.013-.07.054-.068.055-.027.02c-.02.015-.04.03-.06.046l-.06.044c-.06.042-.118.086-.18.128s-.1.072-.156.107l-.011.007-.075.048c-.024.016-.05.033-.077.048s-.058.038-.086.056l-.165.1-.072.044-.018.01-.076.046-.08.046-.01.007-.078.044c-.027.015-.057.031-.085.048-.057.031-.113.062-.171.092s-.111.058-.169.086l-.011.007c-.024.013-.05.024-.075.038l-.013.007-.08.04c-.088.042-.176.082-.265.122l-.088.04c-.028.013-.06.026-.09.038s-.06.024-.09.038-.06.024-.09.036a9.978,9.978,0,0,1-1.919.552,9.854,9.854,0,0,1-1.758.158h3.678v0c6.041-.1,10.909-5.684,10.909-12.561C26.2,5.631,21.245.007,15.132.007Z" transform="translate(-1890.534 -0.001)" fill="url(#linear-gradient)"/>
    <path id="Path_215" data-name="Path 215" d="M22.049,10.986c-.005-.048-.012-.1-.017-.149-.707-3.935-3.773-6.9-7.449-6.9a6.794,6.794,0,0,0-1.758.232c3.35.9,5.843,4.318,5.843,8.4s-2.493,7.5-5.843,8.4a6.778,6.778,0,0,1-1.758.232c-3.676,0-6.742-2.961-7.449-6.9-.01-.058-.02-.113-.028-.171a9.826,9.826,0,0,1,0-3.122c.008-.058.018-.115.028-.171.01-.081.02-.161.032-.241,0-.028.008-.054.011-.082l.005-.033.01-.069c0-.024.007-.046.01-.068s0-.032.008-.048l.01-.059c0-.024.008-.048.013-.074l.01-.058a.436.436,0,0,1,.008-.044c.005-.028.01-.058.015-.086a.384.384,0,0,1,.008-.041c0-.015.005-.031.008-.046s.011-.059.017-.089.015-.076.024-.113c.024-.113.048-.225.075-.338.007-.031.015-.062.022-.094a.138.138,0,0,1,.007-.024c.005-.024.011-.044.017-.068s.008-.033.013-.051.013-.054.022-.082c0-.008.005-.016.007-.024.007-.028.015-.056.022-.084C3.994,8.91,4,8.9,4,8.89c.008-.031.017-.064.027-.1s.017-.061.024-.092.013-.048.02-.071a.318.318,0,0,1,.011-.038c.007-.021.011-.041.018-.062l.02-.066c.013-.046.028-.092.043-.136l.06-.187c.011-.036.024-.071.036-.107s.02-.061.032-.09c0-.008.005-.016.008-.024.01-.026.018-.054.028-.08,0-.008.005-.016.008-.024.01-.028.02-.058.032-.086,0-.008.005-.015.008-.024s.018-.051.028-.076.011-.03.017-.044.018-.048.028-.074a.023.023,0,0,0,0-.01c.011-.031.024-.061.036-.092.055-.14.113-.279.174-.417.008-.018.015-.034.024-.052s.02-.044.03-.066.024-.056.038-.084.027-.059.042-.089a.1.1,0,0,0,.008-.02c.01-.021.02-.044.032-.066s.013-.03.022-.044.022-.046.033-.069A.147.147,0,0,1,4.9,6.48c.013-.028.028-.056.042-.084l.005-.011L4.994,6.3,5,6.278c.013-.026.027-.054.042-.08.024-.046.046-.09.072-.135L5.151,6c.018-.033.036-.066.055-.1s.038-.069.058-.105.032-.054.046-.082l.055-.094c.018-.03.035-.061.053-.09l.005-.007c.015-.026.032-.051.046-.077.005-.008.008-.015.013-.024l.046-.076a.141.141,0,0,1,.011-.018c.013-.021.027-.044.042-.066s.015-.024.024-.036.028-.046.043-.069l.052-.08a.564.564,0,0,0,.033-.051c.009-.016.022-.034.033-.051q.09-.136.183-.266c.02-.028.04-.056.06-.086l0,0,.04-.056.032-.044c.017-.024.033-.044.05-.066l.007-.008c.015-.02.03-.041.045-.061l.036-.048c.013-.015.022-.028.032-.041l.03-.039c.015-.018.028-.038.043-.056l.015-.018.05-.064c.136-.171.278-.337.422-.5l.04-.046L6.9,3.526a.48.48,0,0,1,.038-.041L7,3.414l.05-.052c.017-.018.028-.031.043-.046L7.106,3.3c.018-.018.035-.038.053-.056s.027-.026.038-.039.03-.03.045-.046l0,0,.072-.072c.05-.048.1-.1.151-.146l.057-.054a.259.259,0,0,0,.024-.024c.024-.024.048-.044.072-.066s.052-.048.078-.071.05-.044.075-.067l.005,0c.024-.02.046-.041.07-.061l.015-.013c.024-.02.046-.041.07-.061l.072-.061.032-.026.053-.044.018-.015.067-.054c.046-.038.093-.076.14-.112l.106-.082c.024-.02.052-.039.078-.059l.005,0c.027-.02.055-.041.083-.061s.055-.039.083-.061h0c.027-.02.055-.038.081-.058,0,0,0,0,0,0,.028-.02.055-.039.083-.058l.085-.058.081-.054c.065-.042.13-.086.195-.127l.158-.1c.03-.018.058-.036.088-.052s.046-.028.072-.041l.028-.016c.022-.013.043-.024.065-.036l.024-.013.081-.046L9.8,1.233l.012-.007L9.9,1.18l.092-.048.092-.048c.03-.017.062-.031.092-.046.06-.03.121-.059.181-.087l.1-.044.093-.042c.032-.015.061-.026.092-.039l.005,0,.093-.039.085-.036.021-.008c.024-.01.046-.02.07-.028L10.939.7l.072-.03.01,0c.03-.011.058-.024.088-.033l.013,0L11.206.6l.01,0c.061-.024.125-.044.186-.066L11.5.5,11.581.47l.015,0A10.085,10.085,0,0,1,12.829.158,9.739,9.739,0,0,1,14.184.008V0H11.07C4.956,0,0,5.624,0,12.563c0,6.81,4.775,12.354,10.732,12.556.113,0,.225.007.337.007a9.878,9.878,0,0,0,3.678-.71l.09-.036.09-.038.09-.038.088-.04.265-.121.08-.039.013-.007c.024-.011.05-.024.075-.038a.033.033,0,0,0,.012-.007l.169-.086c.057-.028.115-.061.171-.092.028-.015.057-.031.085-.048s.051-.029.078-.044l.01-.007.08-.046c.027-.015.052-.029.076-.046l.018-.01.072-.044q.082-.048.164-.1c.03-.018.058-.038.087-.056l.076-.048.075-.048.012-.011c.052-.034.1-.07.156-.107l.18-.128.06-.044c.02-.015.04-.03.06-.046l.027-.02c.024-.018.046-.034.068-.053l.07-.054c.005,0,.012-.008.017-.013.024-.018.045-.036.068-.054l.076-.061c.077-.062.153-.127.228-.191l.072-.062.072-.062s.005,0,.007-.007l.07-.062.072-.068.072-.067c.047-.042.092-.087.138-.13l.01-.01.051-.051a.255.255,0,0,0,.024-.024c.017-.015.032-.031.048-.048l.03-.029.048-.048a.156.156,0,0,0,.017-.018c.018-.02.038-.038.057-.057l.007-.007c.022-.021.043-.044.063-.066.046-.048.093-.1.138-.148l.043-.048.036-.039c.024-.024.045-.048.067-.074s.028-.033.043-.048l.024-.03c.013-.016.028-.031.042-.048.09-.1.178-.21.265-.319.018-.024.038-.046.057-.071.005,0,.008-.012.013-.016.015-.02.03-.039.045-.057s.015-.018.022-.028l.053-.063.062-.081c.04-.054.081-.108.121-.162l.045-.062a.3.3,0,0,0,.02-.028c.013-.02.028-.038.042-.058l.02-.028.043-.062.015-.021c.015-.024.032-.046.046-.069s.033-.048.05-.076.024-.038.036-.056.035-.051.051-.077l.04-.062c.028-.043.055-.085.081-.128a.537.537,0,0,1,.032-.048c.012-.015.024-.041.038-.062l.01-.016c.013-.024.028-.046.042-.069s.015-.024.024-.038.022-.038.033-.056.035-.059.051-.089.037-.062.055-.1l.02-.034c.013-.024.028-.048.042-.074l.043-.079c.015-.027.024-.046.037-.069L20.583,19a.635.635,0,0,0,.033-.064c.042-.077.081-.156.121-.235l.024-.048.032-.066.05-.1a.082.082,0,0,0,.008-.018c.015-.03.028-.059.042-.09,0-.005.005-.008.007-.013l.04-.089c.05-.11.1-.223.146-.335.008-.021.018-.043.027-.064s.022-.054.033-.081.024-.059.037-.09c0-.007.005-.011.007-.018.01-.024.018-.046.027-.069l.02-.051c.012-.03.022-.058.033-.087.028-.076.057-.151.083-.227.008-.021.015-.042.021-.062s.024-.066.033-.1.015-.044.024-.067.008-.026.014-.04.015-.048.024-.071.012-.034.017-.051c.045-.14.088-.281.128-.424.008-.026.015-.052.021-.079l.04-.148c.007-.024.012-.044.018-.067s.013-.051.02-.077.015-.059.022-.087.01-.042.015-.064c.018-.072.035-.145.052-.217.008-.033.015-.068.022-.1s.012-.058.018-.085.007-.03.01-.044l.015-.071.02-.1c.007-.032.011-.062.018-.094.017-.084.032-.169.045-.253,0-.024.008-.046.012-.07s.007-.043.01-.064.005-.028.007-.042.008-.046.011-.071.005-.031.007-.046.008-.058.013-.087c0-.012,0-.024.005-.036l.01-.074c.008-.056.015-.11.022-.166s.012-.1.017-.149a14.233,14.233,0,0,0,.086-1.582A15.338,15.338,0,0,0,22.049,10.986Z" transform="translate(-1890)" fill="url(#linear-gradient-2)"/>
  </g>
</svg>
