<?xml version="1.0" encoding="utf-8"?>
<!-- Generator: Adobe Illustrator 26.0.1, SVG Export Plug-In . SVG Version: 6.00 Build 0)  -->
<svg version="1.1" id="Layer_1" xmlns="http://www.w3.org/2000/svg" xmlns:xlink="http://www.w3.org/1999/xlink" x="0px" y="0px"
	 viewBox="0 0 52.3 51.9" style="enable-background:new 0 0 52.3 51.9;" xml:space="preserve">
<style type="text/css">
	.st0{fill:#FFFFFF;}
	.st1{fill:url(#Path_214_00000173880180573855066070000007160918945751150256_);}
	.st2{fill:url(#Path_215_00000085969421565032137090000003118590187854557830_);}
</style>
<g id="Group_299" transform="matrix(0.899, -0.438, 0.438, 0.899, 0, 17.252)">
	<path id="Path_212" class="st0" d="M22,38.2c0.2,0,0.3,0,0.5,0L22,38.2L22,38.2z"/>
	
		<linearGradient id="Path_214_00000134969081128781669650000009821423979125021329_" gradientUnits="userSpaceOnUse" x1="13.3311" y1="21.4931" x2="12.9151" y2="22.6441" gradientTransform="matrix(30.6104 16.902 14.9137 -34.6915 -700.0311 558.6061)">
		<stop  offset="0" style="stop-color:#77FFF7"/>
		<stop  offset="0.263" style="stop-color:#77FFF7"/>
		<stop  offset="0.681" style="stop-color:#AF2BFF"/>
		<stop  offset="1" style="stop-color:#AF2BFF"/>
	</linearGradient>
	<path id="Path_214" style="fill:url(#Path_214_00000134969081128781669650000009821423979125021329_);" d="M22.4,0
		c-0.2,0-0.4,0-0.6,0c-1.3,0.1-2.7,0.3-4,0.7l0,0c0,0-0.1,0-0.1,0s-0.1,0-0.1,0.1c-0.1,0-0.2,0.1-0.3,0.1c0,0,0,0,0,0
		c0,0-0.1,0-0.1,0l0,0c0,0-0.1,0-0.1,0c0,0,0,0,0,0l-0.1,0l0,0c0,0-0.1,0-0.1,0l0,0l-0.1,0.1l-0.1,0.1h0l-0.1,0.1c0,0-0.1,0-0.1,0.1
		s-0.1,0-0.1,0.1c-0.1,0-0.2,0.1-0.3,0.1l-0.1,0.1c0,0-0.1,0-0.1,0.1s-0.1,0-0.1,0.1s-0.1,0-0.1,0.1c0,0,0,0,0,0c0,0-0.1,0-0.1,0.1
		c0,0-0.1,0-0.1,0.1l0,0c0,0-0.1,0-0.1,0.1c0,0,0,0,0,0c0,0-0.1,0-0.1,0.1s-0.1,0.1-0.1,0.1c-0.1,0-0.2,0.1-0.2,0.2
		c-0.1,0.1-0.2,0.1-0.3,0.2l-0.1,0.1c0,0-0.1,0.1-0.1,0.1l-0.1,0.1c0,0,0,0,0,0c0,0-0.1,0.1-0.1,0.1c0,0,0,0,0,0l-0.1,0.1
		c0,0-0.1,0.1-0.1,0.1l0,0l-0.1,0.1c-0.1,0-0.1,0.1-0.2,0.1c-0.1,0.1-0.1,0.1-0.2,0.2l-0.1,0.1c0,0,0,0,0,0l-0.1,0.1l0,0l-0.1,0.1
		c0,0-0.1,0.1-0.1,0.1c0,0,0,0,0,0C12,4,12,4,11.9,4.1l0,0c0,0-0.1,0.1-0.1,0.1l-0.1,0.1l-0.1,0.1c0,0,0,0,0,0l-0.1,0.1
		c-0.1,0.1-0.2,0.1-0.2,0.2l-0.1,0.1l0,0c0,0,0,0-0.1,0.1S11,5,11,5c0,0-0.1,0.1-0.1,0.1c0,0,0,0,0,0c0,0,0,0-0.1,0.1l-0.1,0.1
		c0,0-0.1,0.1-0.1,0.1c0,0,0,0-0.1,0.1c0,0,0,0-0.1,0.1c0,0,0,0-0.1,0.1C10.2,5.8,10,6.1,9.8,6.3L9.7,6.4c0,0,0,0,0,0
		c0,0,0,0.1-0.1,0.1L9.6,6.6l0,0.1c0,0,0,0.1-0.1,0.1s0,0.1-0.1,0.1c0,0,0,0,0,0L9.3,7c0,0,0,0,0,0.1s0,0.1-0.1,0.1c0,0,0,0,0,0
		c0,0-0.1,0.1-0.1,0.1C9,7.4,8.9,7.5,8.9,7.7c0,0,0,0.1-0.1,0.1c0,0,0,0.1-0.1,0.1L8.7,7.9c0,0,0,0.1-0.1,0.1c0,0,0,0,0,0.1
		s0,0.1-0.1,0.1c0,0,0,0,0,0L8.4,8.3c0,0,0,0,0,0c0,0,0,0.1-0.1,0.1l0,0c0,0-0.1,0.1-0.1,0.1L8.2,8.8c0,0,0,0.1-0.1,0.1S8,9,8,9.1
		c0,0.1-0.1,0.1-0.1,0.2L7.9,9.3L7.8,9.5L7.7,9.7l0,0c0,0,0,0.1-0.1,0.1c0,0,0,0,0,0c0,0,0,0.1-0.1,0.1c0,0,0,0,0,0
		c0,0,0,0.1-0.1,0.1s0,0,0,0.1c0,0,0,0.1,0,0.1c0,0,0,0,0,0c0,0,0,0.1-0.1,0.1c0,0,0,0.1-0.1,0.1l0,0.1c0,0,0,0.1,0,0.1
		C7.1,11,7,11.2,6.9,11.4c0,0,0,0.1-0.1,0.1c0,0,0,0,0,0c0,0,0,0.1,0,0.1c0,0,0,0,0,0.1s0,0.1,0,0.1c0,0,0,0,0,0c0,0,0,0.1,0,0.1
		c0,0,0,0,0,0c0,0,0,0.1,0,0.1c0,0,0,0,0,0c0,0,0,0.1,0,0.1c0,0,0,0.1-0.1,0.2l-0.1,0.3c0,0.1,0,0.1-0.1,0.2l0,0.1c0,0,0,0.1,0,0.1
		c0,0,0,0,0,0.1c0,0,0,0.1,0,0.1c0,0,0,0.1,0,0.1s0,0.1,0,0.1c0,0,0,0,0,0c0,0,0,0.1,0,0.1c0,0,0,0,0,0c0,0,0,0.1,0,0.1
		c0,0,0,0.1,0,0.1s0,0.1,0,0.1c0,0,0,0,0,0c0,0,0,0.1,0,0.1c0,0.2-0.1,0.3-0.1,0.5c0,0.1,0,0.1,0,0.2s0,0.1,0,0.1c0,0,0,0,0,0.1
		c0,0,0,0,0,0.1c0,0,0,0.1,0,0.1c0,0,0,0,0,0.1c0,0,0,0.1,0,0.1c0,0,0,0.1,0,0.1l0,0.1c0,0,0,0,0,0.1s0,0.1,0,0.1l0,0.1l0,0
		c0,0,0,0.1,0,0.1c0,0.1,0,0.2,0,0.4c0,0.1,0,0.2,0,0.3c-0.3,1.6-0.3,3.2,0,4.8c0,0.1,0,0.2,0,0.3c1.1,6,5.8,10.6,11.4,10.6
		c0.9,0,1.8-0.1,2.7-0.4c-5.1-1.4-9-6.6-9-12.9s3.8-11.5,9-12.9c0.9-0.2,1.8-0.4,2.7-0.4c5.6,0,10.3,4.5,11.4,10.6
		c0,0.1,0,0.2,0,0.2c0.1,0.8,0.1,1.6,0.1,2.4c0,0.8,0,1.6-0.1,2.4c0,0.1,0,0.2,0,0.2c0,0.1,0,0.2,0,0.3c0,0,0,0.1,0,0.1
		c0,0,0,0,0,0.1c0,0,0,0.1,0,0.1c0,0,0,0,0,0.1c0,0,0,0.1,0,0.1c0,0,0,0,0,0.1c0,0,0,0.1,0,0.1s0,0.1,0,0.1c0,0.1,0,0.3-0.1,0.4
		c0,0,0,0.1,0,0.1c0,0,0,0.1,0,0.1l0,0.1l0,0.1c0,0,0,0.1,0,0.1c0,0,0,0.1,0,0.2c0,0.1-0.1,0.2-0.1,0.3l0,0.1c0,0,0,0.1,0,0.1
		c0,0,0,0.1,0,0.1c0,0,0,0.1,0,0.1l-0.1,0.2c0,0,0,0.1,0,0.1c-0.1,0.2-0.1,0.4-0.2,0.7c0,0,0,0.1,0,0.1s0,0.1,0,0.1s0,0,0,0.1
		c0,0,0,0.1,0,0.1c0,0,0,0.1-0.1,0.2c0,0,0,0.1,0,0.1c0,0.1-0.1,0.2-0.1,0.3c0,0,0,0.1-0.1,0.1c0,0,0,0.1,0,0.1c0,0,0,0.1,0,0.1
		c0,0,0,0,0,0c0,0,0,0.1-0.1,0.1c0,0,0,0.1-0.1,0.1c0,0,0,0.1,0,0.1c-0.1,0.2-0.1,0.3-0.2,0.5l-0.1,0.1c0,0,0,0,0,0
		c0,0,0,0.1-0.1,0.1c0,0,0,0,0,0l-0.1,0.2c0,0,0,0.1,0,0.1s0,0,0,0.1c-0.1,0.1-0.1,0.2-0.2,0.4c0,0,0,0.1-0.1,0.1l-0.1,0.1
		c0,0,0,0.1-0.1,0.1s0,0.1-0.1,0.1s0,0.1-0.1,0.1l0,0.1c0,0-0.1,0.1-0.1,0.1s-0.1,0.1-0.1,0.1c0,0,0,0.1-0.1,0.1c0,0,0,0,0,0.1
		c0,0,0,0.1-0.1,0.1c0,0,0,0,0,0c0,0,0,0.1-0.1,0.1s0,0,0,0.1c0,0.1-0.1,0.1-0.1,0.2c0,0,0,0.1-0.1,0.1s-0.1,0.1-0.1,0.1
		s0,0.1-0.1,0.1S30.5,31,30.5,31s0,0.1-0.1,0.1c0,0,0,0,0,0l-0.1,0.1c0,0,0,0,0,0c0,0,0,0.1-0.1,0.1c0,0,0,0,0,0c0,0,0,0.1-0.1,0.1
		l-0.2,0.2c0,0-0.1,0.1-0.1,0.1L29.7,32c0,0,0,0,0,0c0,0,0,0.1-0.1,0.1c0,0,0,0,0,0c0,0-0.1,0.1-0.1,0.1c-0.1,0.2-0.3,0.3-0.4,0.5
		c0,0,0,0-0.1,0.1l0,0c0,0,0,0-0.1,0.1s-0.1,0.1-0.1,0.1c0,0,0,0-0.1,0.1l-0.1,0.1l-0.2,0.2c0,0-0.1,0.1-0.1,0.1l0,0
		c0,0-0.1,0.1-0.1,0.1c0,0,0,0,0,0l-0.1,0.1l0,0c0,0,0,0-0.1,0.1c0,0,0,0,0,0L28,34l0,0c-0.1,0.1-0.1,0.1-0.2,0.2
		c0,0-0.1,0.1-0.1,0.1l-0.1,0.1l-0.1,0.1l0,0c0,0-0.1,0.1-0.1,0.1s-0.1,0.1-0.1,0.1c-0.1,0.1-0.2,0.2-0.3,0.3c0,0-0.1,0.1-0.1,0.1
		l-0.1,0.1c0,0,0,0,0,0l-0.1,0.1l-0.1,0.1l0,0c0,0-0.1,0-0.1,0.1l-0.1,0.1c-0.1,0.1-0.2,0.1-0.3,0.2c-0.1,0.1-0.2,0.1-0.2,0.2l0,0
		L25.5,36c0,0-0.1,0-0.1,0.1s-0.1,0.1-0.1,0.1L25,36.3l-0.1,0.1l0,0l-0.1,0.1l-0.1,0.1c0,0,0,0,0,0l-0.1,0.1c0,0-0.1,0-0.1,0.1
		c-0.1,0-0.2,0.1-0.3,0.1s-0.2,0.1-0.3,0.1c0,0,0,0,0,0c0,0-0.1,0-0.1,0.1l0,0l-0.1,0.1c-0.1,0.1-0.3,0.1-0.4,0.2l-0.1,0.1
		c0,0-0.1,0-0.1,0.1s-0.1,0-0.1,0.1s-0.1,0-0.1,0.1c-1,0.4-1.9,0.7-2.9,0.8c-0.9,0.2-1.8,0.2-2.7,0.2h5.6l0,0
		c9.3-0.2,16.7-8.7,16.7-19.3C39.4,8.6,31.8,0,22.4,0z"/>
	
		<linearGradient id="Path_215_00000099634630845544981940000000620782768601314698_" gradientUnits="userSpaceOnUse" x1="12.3763" y1="21.97" x2="13.2463" y2="21.285" gradientTransform="matrix(30.5615 16.8853 14.8898 -34.6573 -704.2143 558.0748)">
		<stop  offset="0.274" style="stop-color:#77FFF7"/>
		<stop  offset="0.324" style="stop-color:#9AF8CE"/>
		<stop  offset="0.387" style="stop-color:#C1F0A0"/>
		<stop  offset="0.443" style="stop-color:#DDEB7F"/>
		<stop  offset="0.489" style="stop-color:#EFE76A"/>
		<stop  offset="0.52" style="stop-color:#F5E663"/>
		<stop  offset="0.559" style="stop-color:#F3E167"/>
		<stop  offset="0.603" style="stop-color:#EED472"/>
		<stop  offset="0.649" style="stop-color:#E6BD85"/>
		<stop  offset="0.697" style="stop-color:#DA9DA0"/>
		<stop  offset="0.746" style="stop-color:#CB75C2"/>
		<stop  offset="0.796" style="stop-color:#B843EB"/>
		<stop  offset="0.818" style="stop-color:#AF2BFF"/>
	</linearGradient>
	<path id="Path_215" style="fill:url(#Path_215_00000099634630845544981940000000620782768601314698_);" d="M33.8,16.9
		c0-0.1,0-0.2,0-0.2C32.7,10.6,28,6,22.4,6c-0.9,0-1.8,0.1-2.7,0.4c5.1,1.4,9,6.6,9,12.9s-3.8,11.5-9,12.9c-0.9,0.2-1.8,0.4-2.7,0.4
		c-5.6,0-10.3-4.5-11.4-10.6c0-0.1,0-0.2,0-0.3c-0.3-1.6-0.3-3.2,0-4.8c0-0.1,0-0.2,0-0.3c0-0.1,0-0.2,0-0.4c0,0,0-0.1,0-0.1l0,0
		l0-0.1c0,0,0-0.1,0-0.1s0,0,0-0.1l0-0.1c0,0,0-0.1,0-0.1l0-0.1c0,0,0,0,0-0.1c0,0,0-0.1,0-0.1c0,0,0,0,0-0.1c0,0,0,0,0-0.1
		c0,0,0-0.1,0-0.1s0-0.1,0-0.2c0-0.2,0.1-0.3,0.1-0.5c0,0,0-0.1,0-0.1c0,0,0,0,0,0c0,0,0-0.1,0-0.1S6,14,6,14c0,0,0-0.1,0-0.1
		c0,0,0,0,0,0c0,0,0-0.1,0-0.1c0,0,0,0,0,0c0,0,0-0.1,0-0.1s0-0.1,0-0.1s0-0.1,0-0.1c0,0,0,0,0-0.1c0,0,0-0.1,0-0.1l0-0.1
		c0-0.1,0-0.1,0.1-0.2l0.1-0.3c0-0.1,0-0.1,0.1-0.2s0-0.1,0-0.1c0,0,0,0,0,0c0,0,0-0.1,0-0.1c0,0,0,0,0,0c0,0,0-0.1,0-0.1
		c0,0,0,0,0,0c0,0,0-0.1,0-0.1c0,0,0,0,0-0.1s0-0.1,0-0.1c0,0,0,0,0,0c0,0,0-0.1,0.1-0.1c0.1-0.2,0.2-0.4,0.3-0.6c0,0,0-0.1,0-0.1
		s0-0.1,0-0.1s0-0.1,0.1-0.1s0-0.1,0.1-0.1c0,0,0,0,0,0c0,0,0-0.1,0-0.1s0,0,0-0.1s0-0.1,0.1-0.1c0,0,0,0,0,0c0,0,0-0.1,0.1-0.1
		c0,0,0,0,0,0c0,0,0-0.1,0.1-0.1l0,0c0,0,0-0.1,0.1-0.1c0-0.1,0.1-0.1,0.1-0.2l0.1-0.1C7.9,9.2,8,9.1,8,9S8,8.9,8.1,8.9
		s0-0.1,0.1-0.1l0.1-0.1c0,0,0.1-0.1,0.1-0.1l0,0c0,0,0-0.1,0.1-0.1c0,0,0,0,0,0l0.1-0.1c0,0,0,0,0,0c0,0,0-0.1,0.1-0.1
		c0,0,0,0,0-0.1c0,0,0-0.1,0.1-0.1l0.1-0.1c0,0,0-0.1,0.1-0.1c0,0,0-0.1,0.1-0.1C8.9,7.5,9,7.4,9.1,7.2c0,0,0.1-0.1,0.1-0.1
		c0,0,0,0,0,0c0,0,0-0.1,0.1-0.1s0,0,0-0.1s0.1-0.1,0.1-0.1c0,0,0,0,0,0c0,0,0-0.1,0.1-0.1s0-0.1,0.1-0.1s0,0,0-0.1l0-0.1
		c0,0,0-0.1,0.1-0.1l0,0l0.1-0.1c0.2-0.3,0.4-0.5,0.6-0.8c0,0,0,0,0.1-0.1l0.1-0.1c0,0,0,0,0.1-0.1c0,0,0.1-0.1,0.1-0.1l0.1-0.1
		c0,0,0,0,0.1-0.1c0,0,0,0,0,0C10.9,5,11,5,11,5s0,0,0.1-0.1s0,0,0.1-0.1l0,0l0.1-0.1c0.1-0.1,0.2-0.2,0.2-0.2l0.1-0.1c0,0,0,0,0,0
		c0,0,0.1-0.1,0.1-0.1s0.1-0.1,0.1-0.1s0.1-0.1,0.1-0.1l0,0C12,4,12,4,12,4l0,0c0,0,0.1-0.1,0.1-0.1l0.1-0.1l0,0c0,0,0.1,0,0.1-0.1
		c0,0,0,0,0,0l0.1-0.1c0.1-0.1,0.1-0.1,0.2-0.2c0.1,0,0.1-0.1,0.2-0.1c0,0,0.1-0.1,0.1-0.1l0,0c0,0,0.1-0.1,0.1-0.1S13.3,3,13.3,3
		l0,0c0,0,0.1-0.1,0.1-0.1c0,0,0,0,0,0c0,0,0.1-0.1,0.1-0.1s0.1-0.1,0.1-0.1l0.1-0.1c0.1-0.1,0.2-0.1,0.3-0.2l0.2-0.2
		c0,0,0.1-0.1,0.1-0.1s0.1,0,0.1-0.1c0,0,0,0,0,0c0,0,0.1,0,0.1-0.1l0,0L14.9,2c0,0,0.1,0,0.1-0.1c0,0,0,0,0,0l0.1-0.1l0.1-0.1
		c0,0,0.1,0,0.1-0.1s0.1,0,0.1-0.1c0.1,0,0.2-0.1,0.3-0.1L16,1.4l0.1-0.1c0,0,0.1,0,0.1-0.1h0l0.1-0.1l0.1-0.1l0,0c0,0,0.1,0,0.1,0
		l0,0l0.1,0c0,0,0,0,0,0C17,1,17,1,17,1l0,0c0,0,0.1,0,0.1,0c0,0,0,0,0,0c0.1,0,0.2-0.1,0.3-0.1l0.1-0.1l0.1,0l0,0
		c0.6-0.2,1.2-0.4,1.9-0.5C20.4,0.1,21.1,0,21.8,0v0L17,0C7.6,0,0,8.6,0,19.3c0,10.4,7.3,19,16.5,19.3c0.2,0,0.3,0,0.5,0
		c1.9,0,3.8-0.4,5.6-1.1l0.1-0.1c0,0,0.1,0,0.1-0.1s0.1,0,0.1-0.1l0.1-0.1l0.4-0.2l0.1-0.1c0,0,0,0,0,0c0,0,0.1,0,0.1-0.1
		c0,0,0,0,0,0c0.1,0,0.2-0.1,0.3-0.1s0.2-0.1,0.3-0.1c0,0,0.1,0,0.1-0.1s0.1,0,0.1-0.1c0,0,0,0,0,0l0.1-0.1c0,0,0.1,0,0.1-0.1l0,0
		l0.1-0.1c0.1,0,0.2-0.1,0.3-0.2c0,0,0.1-0.1,0.1-0.1l0.1-0.1l0.1-0.1c0,0,0,0,0,0c0.1-0.1,0.2-0.1,0.2-0.2l0.3-0.2l0.1-0.1
		c0,0,0.1,0,0.1-0.1l0,0c0,0,0.1-0.1,0.1-0.1l0.1-0.1c0,0,0,0,0,0c0,0,0.1-0.1,0.1-0.1l0.1-0.1c0.1-0.1,0.2-0.2,0.4-0.3
		c0,0,0.1-0.1,0.1-0.1s0.1-0.1,0.1-0.1c0,0,0,0,0,0l0.1-0.1c0,0,0.1-0.1,0.1-0.1s0.1-0.1,0.1-0.1c0.1-0.1,0.1-0.1,0.2-0.2l0,0
		l0.1-0.1c0,0,0,0,0,0c0,0,0,0,0.1-0.1l0,0l0.1-0.1c0,0,0,0,0,0c0,0,0.1-0.1,0.1-0.1l0,0c0,0,0.1-0.1,0.1-0.1
		c0.1-0.1,0.1-0.2,0.2-0.2l0.1-0.1l0.1-0.1c0,0,0.1-0.1,0.1-0.1s0,0,0.1-0.1l0,0c0,0,0,0,0.1-0.1c0.1-0.2,0.3-0.3,0.4-0.5
		c0,0,0.1-0.1,0.1-0.1c0,0,0,0,0,0c0,0,0-0.1,0.1-0.1c0,0,0,0,0,0l0.1-0.1l0.1-0.1c0.1-0.1,0.1-0.2,0.2-0.2c0,0,0-0.1,0.1-0.1
		c0,0,0,0,0,0c0,0,0-0.1,0.1-0.1l0,0l0.1-0.1c0,0,0,0,0,0c0,0,0-0.1,0.1-0.1s0.1-0.1,0.1-0.1s0-0.1,0.1-0.1s0.1-0.1,0.1-0.1
		s0-0.1,0.1-0.1c0-0.1,0.1-0.1,0.1-0.2c0,0,0-0.1,0-0.1c0,0,0-0.1,0.1-0.1c0,0,0,0,0,0c0,0,0-0.1,0.1-0.1s0,0,0-0.1s0-0.1,0.1-0.1
		c0,0,0.1-0.1,0.1-0.1s0.1-0.1,0.1-0.1l0-0.1c0,0,0-0.1,0.1-0.1s0-0.1,0.1-0.1s0-0.1,0.1-0.1l0.1-0.1c0,0,0-0.1,0.1-0.1
		c0.1-0.1,0.1-0.2,0.2-0.4l0-0.1c0,0,0-0.1,0-0.1l0.1-0.2c0,0,0,0,0,0c0,0,0-0.1,0.1-0.1c0,0,0,0,0,0l0.1-0.1
		c0.1-0.2,0.2-0.3,0.2-0.5c0,0,0-0.1,0-0.1s0-0.1,0.1-0.1s0-0.1,0.1-0.1c0,0,0,0,0,0c0,0,0-0.1,0-0.1s0-0.1,0-0.1c0,0,0-0.1,0.1-0.1
		c0-0.1,0.1-0.2,0.1-0.3c0,0,0-0.1,0-0.1c0,0,0-0.1,0.1-0.2s0-0.1,0-0.1s0,0,0-0.1c0,0,0-0.1,0-0.1s0-0.1,0-0.1
		c0.1-0.2,0.1-0.4,0.2-0.7c0,0,0-0.1,0-0.1l0.1-0.2c0,0,0-0.1,0-0.1s0-0.1,0-0.1s0-0.1,0-0.1s0-0.1,0-0.1c0-0.1,0.1-0.2,0.1-0.3
		c0,0,0-0.1,0-0.2s0-0.1,0-0.1c0,0,0,0,0-0.1l0-0.1l0-0.1c0,0,0-0.1,0-0.1c0-0.1,0-0.3,0.1-0.4c0,0,0-0.1,0-0.1s0-0.1,0-0.1
		s0,0,0-0.1s0-0.1,0-0.1s0,0,0-0.1c0,0,0-0.1,0-0.1c0,0,0,0,0-0.1l0-0.1c0-0.1,0-0.2,0-0.3s0-0.2,0-0.2c0.1-0.8,0.1-1.6,0.1-2.4
		C34,18.5,33.9,17.7,33.8,16.9z"/>
</g>
</svg>
