<svg xmlns="http://www.w3.org/2000/svg" viewBox="0 0 19.879 19.908">
  <g id="phone-call_1_" data-name="phone-call (1)" transform="translate(-0.344 0)">
    <g id="Group_312" data-name="Group 312" transform="translate(0.344 0)">
      <path id="Path_316" data-name="Path 316" d="M16.063,38.587a1.958,1.958,0,0,0-1.42-.651,2.025,2.025,0,0,0-1.437.647l-1.328,1.324c-.109-.059-.218-.113-.324-.168-.151-.076-.294-.147-.416-.223a14.43,14.43,0,0,1-3.458-3.151,8.513,8.513,0,0,1-1.134-1.79c.345-.315.664-.643.975-.958.118-.118.235-.239.353-.357a1.928,1.928,0,0,0,0-2.908L6.727,29.2c-.13-.13-.265-.265-.391-.4-.252-.261-.517-.529-.79-.782a1.989,1.989,0,0,0-1.408-.618,2.058,2.058,0,0,0-1.429.618l-.008.008L1.274,29.473a3.074,3.074,0,0,0-.912,1.954A7.365,7.365,0,0,0,.9,34.545a18.091,18.091,0,0,0,3.214,5.361A19.772,19.772,0,0,0,10.7,45.061a10.258,10.258,0,0,0,3.7,1.092c.088,0,.181.008.265.008a3.166,3.166,0,0,0,2.424-1.042c0-.008.013-.013.017-.021a9.552,9.552,0,0,1,.735-.76c.181-.172.366-.353.546-.542a2.1,2.1,0,0,0,.634-1.454A2.019,2.019,0,0,0,18.37,40.9Zm1.5,4.424s0,0,0,0c-.164.176-.332.336-.513.513a11.048,11.048,0,0,0-.811.84,2.026,2.026,0,0,1-1.58.668c-.063,0-.13,0-.193,0a9.113,9.113,0,0,1-3.277-.983,18.664,18.664,0,0,1-6.2-4.857A17.058,17.058,0,0,1,1.967,34.15a6,6,0,0,1-.471-2.63,1.929,1.929,0,0,1,.58-1.248l1.433-1.433a.955.955,0,0,1,.639-.3.9.9,0,0,1,.613.294l.013.013c.256.239.5.487.756.752.13.134.265.269.4.408l1.147,1.147a.8.8,0,0,1,0,1.3c-.122.122-.239.244-.361.361-.353.361-.689.7-1.055,1.025-.008.008-.017.013-.021.021a.857.857,0,0,0-.218.954l.013.038A9.209,9.209,0,0,0,6.79,37.07l0,0a15.421,15.421,0,0,0,3.731,3.395,5.737,5.737,0,0,0,.517.282c.151.076.294.147.416.223.017.008.034.021.05.029a.911.911,0,0,0,.416.105.9.9,0,0,0,.639-.29L14,39.381a.951.951,0,0,1,.634-.315.856.856,0,0,1,.605.307l.008.008L17.563,41.7A.831.831,0,0,1,17.567,43.011Z" transform="translate(-0.344 -26.255)" fill="#00fff0"/>
      <path id="Path_317" data-name="Path 317" d="M245.411,87.05a5.407,5.407,0,0,1,4.4,4.4.564.564,0,0,0,.559.471.753.753,0,0,0,.1-.008.568.568,0,0,0,.466-.655,6.539,6.539,0,0,0-5.328-5.328.57.57,0,0,0-.655.462A.561.561,0,0,0,245.411,87.05Z" transform="translate(-234.667 -82.315)" fill="#00fff0"/>
      <path id="Path_318" data-name="Path 318" d="M258.207,8.782A10.767,10.767,0,0,0,249.434.009a.566.566,0,1,0-.185,1.118,9.617,9.617,0,0,1,7.84,7.84.564.564,0,0,0,.559.471.751.751,0,0,0,.1-.008A.557.557,0,0,0,258.207,8.782Z" transform="translate(-238.337 0)" fill="#00fff0"/>
    </g>
  </g>
</svg>
