<?xml version="1.0" encoding="utf-8"?>
<!-- Generator: Adobe Illustrator 26.0.1, SVG Export Plug-In . SVG Version: 6.00 Build 0)  -->
<svg version="1.1" id="Layer_1" xmlns="http://www.w3.org/2000/svg" xmlns:xlink="http://www.w3.org/1999/xlink" x="0px" y="0px"
	 viewBox="0 0 577.9 530.1" style="enable-background:new 0 0 577.9 530.1;" xml:space="preserve">
<style type="text/css">
	.st0{fill:none;stroke:#192037;stroke-width:2;stroke-miterlimit:10;}
</style>
<g id="Group_3_" transform="translate(1.132 0.15)">
	<path id="Path_306" class="st0" d="M254.1,1l319.5,44.9v344.9l-319.5-44.9L254.1,1z"/>
	<path id="Path_307" class="st0" d="M254.1,1l319.5,44.9v344.9l-319.5-44.9L254.1,1z"/>
	<path id="Path_308" class="st0" d="M2,138.5l318.8,44.9v344.9L2,483.4V138.5z"/>
	<path id="Path_309" class="st0" d="M2,138.5l318.8,44.9v344.9L2,483.4"/>
	<path id="Path_310" class="st0" d="M573.6,45.9L320.8,183.4L2,138.5"/>
	<path id="Path_311" class="st0" d="M2,138.5L254.1,1l319.5,44.9"/>
	<path id="Path_312" class="st0" d="M573.6,45.9v344.8L320.8,528.3V183.4L573.6,45.9z"/>
	<path id="Path_313" class="st0" d="M573.6,390.8L320.8,528.3L2,483.4l252.1-137.5L573.6,390.8z"/>
</g>
</svg>
