<?xml version="1.0" encoding="utf-8"?>
<!-- Generator: Adobe Illustrator 26.0.0, SVG Export Plug-In . SVG Version: 6.00 Build 0)  -->
<svg version="1.1" id="Layer_1" xmlns="http://www.w3.org/2000/svg" xmlns:xlink="http://www.w3.org/1999/xlink" x="0px" y="0px"
	 viewBox="0 0 453 463.4" style="enable-background:new 0 0 453 463.4;" xml:space="preserve">
<style type="text/css">
	.st0{fill:none;stroke:#192037;stroke-miterlimit:10;}
</style>
<g id="Group_3_" transform="translate(0.568 0.72)">
	<g id="Group_3_2" transform="translate(-1.866 302.062) rotate(-60)">
		<path id="Path_306" class="st0" d="M147.8-18.2l210.3,37.3l7.3,234.4l-210.4-37.3L147.8-18.2z"/>
		<path id="Path_307" class="st0" d="M147.8-18.2l210.3,37.3l7.3,234.4l-210.4-37.3L147.8-18.2z"/>
		<path id="Path_308" class="st0" d="M-14.5,70l209.9,37.2l7.3,234.4L-7.2,304.4L-14.5,70z"/>
		<path id="Path_309" class="st0" d="M-14.5,70l209.9,37.2l7.3,234.4L-7.2,304.4"/>
		<path id="Path_310" class="st0" d="M358.2,19.1l-162.8,88.1L-14.5,70"/>
		<path id="Path_311" class="st0" d="M-14.5,70l162.3-88.1l210.3,37.3"/>
		<path id="Path_312" class="st0" d="M358.2,19.1l7.3,234.4l-162.8,88.1l-7.3-234.4L358.2,19.1z"/>
		<path id="Path_313" class="st0" d="M365.4,253.5l-162.8,88.1L-7.2,304.4l162.3-88.1L365.4,253.5z"/>
	</g>
</g>
</svg>
