<svg xmlns="http://www.w3.org/2000/svg" width="758.774" height="716" viewBox="0 0 758.774 716">
  <g id="Group_168" data-name="Group 168" transform="translate(0 0)">
    <path id="Path_217" data-name="Path 217" d="M710.857,113.574l-.214.054-.236-.118L507.01,2.86l2.081-.281C580.043-7.389,647.6,11.906,699.3,56.933a240.807,240.807,0,0,1,36.646,40.135q4.464,6.142,8.563,12.59c58.373-.548,112.935,19.113,156.321,56.9A240.664,240.664,0,0,1,937.474,206.7a257.012,257.012,0,0,1,27.71,48.713c15.7,36.186,23.619,76.009,23.548,118.333l.115,1.251-1.109-.618-.006,0L785.838,264.545v-.406c.115-56.565-14.844-109.668-42.2-153.094A260.72,260.72,0,0,0,710.857,113.574ZM511.376,3.657l199.49,108.515a260.961,260.961,0,0,1,31.912-2.5,239.462,239.462,0,0,0-44.359-51.709C647.524,13.655,581.184-5.6,511.376,3.657ZM987.382,372.606c-.142-82.067-31.987-156.715-87.433-205C857.027,130.232,803.11,110.67,745.4,111.034a258.757,258.757,0,0,1,18.277,34.747c15.643,36.067,23.568,75.752,23.541,117.942Z" transform="translate(-230.072 -0.007)" fill="#192037" fill-rule="evenodd"/>
    <path id="Path_218" data-name="Path 218" d="M948.969,214.575,1151.48,324.732l-.661,1.214L948.307,215.789Z" transform="translate(-430.324 -97.37)" fill="#192037" fill-rule="evenodd"/>
    <path id="Path_219" data-name="Path 219" d="M784.9,481.4l1.016.564.005,0L987.815,591.8v.406a344.269,344.269,0,0,1-22.094,120.056,363.769,363.769,0,0,1-59.844,103.9,340.486,340.486,0,0,1-88.629,76.853c-34.352,20.494-70.831,33.56-108.424,38.858l-.2.065-.257-.126L504.967,821.16l2.08-.279h0C659.911,799.393,784.594,647.647,784.9,482.572Zm1.382,2.331a344.449,344.449,0,0,1-22.093,118.9,363.886,363.886,0,0,1-59.84,103.906,340.739,340.739,0,0,1-88.629,76.847c-33.732,20.128-69.524,33.1-106.409,38.574L708.822,930.486c152.625-21.592,277.114-173.04,277.622-337.867Z" transform="translate(-229.144 -218.451)" fill="#192037" fill-rule="evenodd"/>
    <path id="Path_220" data-name="Path 220" d="M947.336,770.211,948,769l202.5,110.171-.661,1.214Z" transform="translate(-429.883 -348.956)" fill="#192037" fill-rule="evenodd"/>
    <path id="Path_221" data-name="Path 221" d="M764.437,992.858l.66-1.214,202.5,110.17-.661,1.213Z" transform="translate(-346.887 -449.989)" fill="#192037" fill-rule="evenodd"/>
    <path id="Path_222" data-name="Path 222" d="M0,624.378l1.02.567L202.911,734.772v.406c-.11,56.565,14.846,109.666,42.2,153.1a261.511,261.511,0,0,0,32.771-2.529l.215-.055.236.115,203.4,110.653-2.078.279h0a255.284,255.284,0,0,1-36.284,2.595c-57.469,0-111.137-19.642-153.936-56.927a240.863,240.863,0,0,1-36.645-40.131q-4.464-6.145-8.563-12.591c-.8.005-1.592.005-2.385.005-57.469,0-111.137-19.642-153.936-56.921a240.809,240.809,0,0,1-36.646-40.135,257.15,257.15,0,0,1-27.713-48.713C7.839,707.725-.077,667.894,0,625.548Zm1.371,2.344C1.512,708.79,33.357,783.448,88.8,831.735c42.536,37.045,95.889,56.583,153.033,56.583h1.512a258.594,258.594,0,0,1-18.278-34.75c-15.653-36.075-23.568-75.76-23.544-117.95ZM245.985,889.667a239.25,239.25,0,0,0,44.36,51.7c50.884,44.315,117.223,63.574,187.02,54.311L277.875,887.171A261.169,261.169,0,0,1,245.985,889.667Z" transform="translate(0 -283.331)" fill="#192037" fill-rule="evenodd"/>
    <path id="Path_223" data-name="Path 223" d="M250.863,1065.013l.66-1.213,202.5,110.172-.66,1.213Z" transform="translate(-113.837 -482.732)" fill="#192037" fill-rule="evenodd"/>
    <path id="Path_224" data-name="Path 224" d="M534.39,51.062,736.412,160.954c38.924,21.173,71.4,53.611,93.911,93.785a271.352,271.352,0,0,1,26.18,66.173,308.443,308.443,0,0,1,9.16,76.022A344.265,344.265,0,0,1,843.57,516.989a363.762,363.762,0,0,1-59.844,103.9A340.689,340.689,0,0,1,695.1,697.746c-34.362,20.505-70.863,33.571-108.474,38.863a260.449,260.449,0,0,1-36.218,2.562c-40.021,0-78.409-9.526-112.645-28.152L235.734,601.125l.661-1.213.485.262c44.188,24.034,95.362,32.839,148,25.437C537.749,604.124,662.432,452.378,662.738,287.3c.191-103.145-47.879-190.886-128.524-234.764l-.486-.264Zm21.827,13.451a241.875,241.875,0,0,1,72.555,80.6,271.589,271.589,0,0,1,26.182,66.172,308.441,308.441,0,0,1,9.155,76.022A344.293,344.293,0,0,1,642.016,407.36a363.874,363.874,0,0,1-59.84,103.906,340.536,340.536,0,0,1-88.629,76.848c-34.366,20.505-70.865,33.576-108.475,38.869-44.144,6.194-87.28,1.065-126.174-14.835L438.41,709.806c44.188,24.034,95.362,32.833,148,25.432C739.28,713.75,863.96,562.006,864.271,396.931c.186-103.145-47.881-190.885-128.531-234.763Z" transform="translate(-106.972 -23.171)" fill="#192037" fill-rule="evenodd"/>
    <path id="Path_225" data-name="Path 225" d="M554.5,63.476C621.483,108.951,664.617,189.8,664.437,287.6,664.126,453.493,539.3,605.521,385.519,627.141c-46.373,6.522-90.084.432-128.514-15.808l181.808,98.9c42.8,23.274,93.586,33.112,148.092,25.448,153.183-21.521,277.661-173.037,277.966-338.443.2-106.519-51.148-192.75-128.6-234.885l-13.858-7.537C670.56,126.614,607.191,92.145,554.5,63.476ZM534.795,52.754C612.215,94.9,663.53,181.115,663.334,287.6,663.022,453,538.55,604.511,385.366,626.043c-54.507,7.669-105.294-2.163-148.092-25.448l-.528.972.057.033,201.483,109.61C481.3,734.6,532.324,744.474,587.06,736.778c153.782-21.6,278.61-173.634,278.916-339.533.2-106.881-51.328-193.509-129.181-235.858l-13.934-7.581c-58.516-31.83-131.674-71.625-187.6-102.059h0l-.528.971Z" transform="translate(-107.43 -23.482)" fill="#192037" fill-rule="evenodd"/>
    <path id="Path_226" data-name="Path 226" d="M710.857,113.574l-.214.054-.236-.118L507.01,2.86l2.081-.281C580.043-7.389,647.6,11.906,699.3,56.933a240.807,240.807,0,0,1,36.646,40.135q4.464,6.142,8.563,12.59c58.373-.548,112.935,19.113,156.321,56.9A240.664,240.664,0,0,1,937.474,206.7a257.012,257.012,0,0,1,27.71,48.713c15.7,36.186,23.619,76.009,23.548,118.333l.115,1.251-1.109-.618-.006,0L785.838,264.545v-.406c.115-56.565-14.844-109.668-42.2-153.094A260.72,260.72,0,0,0,710.857,113.574ZM511.376,3.657l199.49,108.515a260.961,260.961,0,0,1,31.912-2.5,239.462,239.462,0,0,0-44.359-51.709C647.524,13.655,581.184-5.6,511.376,3.657ZM987.382,372.606c-.142-82.067-31.987-156.715-87.433-205C857.027,130.232,803.11,110.67,745.4,111.034a258.757,258.757,0,0,1,18.277,34.747c15.643,36.067,23.568,75.752,23.541,117.942Z" transform="translate(-230.072 -0.007)" fill="#192037" fill-rule="evenodd"/>
    <path id="Path_227" data-name="Path 227" d="M766.819,43.231,969.33,153.387l-.661,1.214L766.157,44.444Z" transform="translate(-347.668 -19.617)" fill="#192037" fill-rule="evenodd"/>
    <path id="Path_228" data-name="Path 228" d="M710.857,113.557c52.644-7.393,103.805,1.41,147.984,25.44l.5.274.617-1.232L657.953,28.155C613.5,3.967,562.02-4.881,509.091,2.561l-2.081.281,203.4,110.65.235.118ZM511.376,3.639l199.49,108.515a261.758,261.758,0,0,1,35.982-2.522,236.97,236.97,0,0,1,89.969,17.381L657.3,29.357C613.7,5.643,563.287-3.246,511.376,3.639Z" transform="translate(-230.072)" fill="#192037" fill-rule="evenodd"/>
    <path id="Path_229" data-name="Path 229" d="M511.321,3.68l199.9,108.737c46.3-6.48,89.944-.389,128.327,15.829l-181.8-98.89C615.386,6.309,565.2-3.555,511.321,3.68ZM859.776,137.992,658.277,28.385C615.265,4.985,564.238-4.883,509.5,2.815l-1.657.233,203.17,110.515.181-.026c54.507-7.665,105.292,2.162,148.094,25.447l.524-.971C859.8,138.006,859.787,138,859.776,137.992Z" transform="translate(-230.45 -0.109)" fill="#192037" fill-rule="evenodd"/>
    <path id="Path_230" data-name="Path 230" d="M0,624.378l1.02.567L202.911,734.772v.406c-.11,56.565,14.846,109.666,42.2,153.1a261.511,261.511,0,0,0,32.771-2.529l.215-.055.236.115,203.4,110.653-2.078.279h0a255.284,255.284,0,0,1-36.284,2.595c-57.469,0-111.137-19.642-153.936-56.927a240.863,240.863,0,0,1-36.645-40.131q-4.464-6.145-8.563-12.591c-.8.005-1.592.005-2.385.005-57.469,0-111.137-19.642-153.936-56.921a240.809,240.809,0,0,1-36.646-40.135,257.15,257.15,0,0,1-27.713-48.713C7.839,707.725-.077,667.894,0,625.548Zm1.371,2.344C1.512,708.79,33.357,783.448,88.8,831.735c42.536,37.045,95.889,56.583,153.033,56.583h1.512a258.594,258.594,0,0,1-18.278-34.75c-15.653-36.075-23.568-75.76-23.544-117.95ZM245.985,889.667a239.25,239.25,0,0,0,44.36,51.7c50.884,44.315,117.223,63.574,187.02,54.311L277.875,887.171A261.169,261.169,0,0,1,245.985,889.667Z" transform="translate(0 -283.331)" fill="#192037" fill-rule="evenodd"/>
    <path id="Path_231" data-name="Path 231" d="M68.719,893.659l.66-1.213,202.5,110.169-.66,1.213Z" transform="translate(-31.183 -404.975)" fill="#192037" fill-rule="evenodd"/>
    <path id="Path_232" data-name="Path 232" d="M279.215,4.6l.235.118,203.4,110.65-2.079.281h0C327.892,137.138,203.221,288.883,202.911,453.957v1.171l-1.015-.565,0,0L0,344.733v-.406A344.294,344.294,0,0,1,22.1,224.271a363.886,363.886,0,0,1,59.84-103.907,340.584,340.584,0,0,1,88.629-76.849C204.923,23.016,241.4,9.95,279,4.653ZM478.5,114.583c-36.886,5.462-72.677,18.434-106.409,38.561a340.778,340.778,0,0,0-88.629,76.85A363.864,363.864,0,0,0,223.626,333.9a344.393,344.393,0,0,0-22.092,118.9L1.372,343.911C1.89,179.084,126.378,27.635,278.992,6.056Z" transform="translate(0 -2.087)" fill="#192037" fill-rule="evenodd"/>
    <path id="Path_233" data-name="Path 233" d="M69.766,339.341l.66-1.214L272.924,448.3l-.66,1.213Z" transform="translate(-31.658 -153.436)" fill="#192037" fill-rule="evenodd"/>
    <path id="Path_234" data-name="Path 234" d="M253.271,115.406l202.5,110.157-.661,1.213L252.609,116.62Z" transform="translate(-114.629 -52.369)" fill="#192037" fill-rule="evenodd"/>
    <path id="Path_235" data-name="Path 235" d="M279.215,4.6l.235.118,203.4,110.65-2.079.281h0C327.891,137.138,203.22,288.883,202.911,453.957c-.187,103.143,47.882,190.888,128.538,234.765l.486.262-.662,1.213L129.248,580.3c-38.922-21.171-71.4-53.608-93.909-93.782A271.117,271.117,0,0,1,9.158,420.349,308.383,308.383,0,0,1,0,344.327,344.29,344.29,0,0,1,22.1,224.271a363.872,363.872,0,0,1,59.84-103.907,340.575,340.575,0,0,1,88.629-76.849C204.923,23.016,241.4,9.95,279,4.653ZM478.5,114.572,278.992,6.045C126.243,27.649,1.68,179.33,1.371,344.317,1.183,447.462,49.253,535.2,129.909,579.08l179.524,97.653a241.842,241.842,0,0,1-72.565-80.595,271.126,271.126,0,0,1-26.181-66.172,308.362,308.362,0,0,1-9.157-76.022,344.291,344.291,0,0,1,22.1-120.055,363.862,363.862,0,0,1,59.839-103.906,340.789,340.789,0,0,1,88.629-76.85C405.826,133.005,441.617,120.033,478.5,114.572Z" transform="translate(0 -2.087)" fill="#192037" fill-rule="evenodd"/>
    <path id="Path_236" data-name="Path 236" d="M279.342,4.886,482.512,115.4l-1.657.233C327.671,137.166,203.187,288.68,202.888,454.086c-.2,106.514,51.142,192.745,128.6,234.881,0,0,.006.005.009.005l-.528.972a.009.009,0,0,0-.009-.005L129.425,580.3C51.574,537.954.044,451.326.243,344.445.553,178.545,125.388,26.517,279.161,4.911Zm32.395,673.337C244.744,632.75,201.6,551.9,201.783,454.085c.3-165.306,124.242-316.84,277.268-339.308L279.134,6.031C126.044,27.646,1.657,179.105,1.348,344.447c-.2,106.518,51.147,192.75,128.6,234.883Z" transform="translate(-0.11 -2.217)" fill="#192037" fill-rule="evenodd"/>
    <path id="Path_237" data-name="Path 237" d="M707.7,20.721l.475.15a227.862,227.862,0,0,1,76.792,41.756l124.82,67.9a228.4,228.4,0,0,1,88.247,51.9l.005,0,3.742,3.582-4.55-2.464h-.005L795.6,73.861l-.052-.049Q790,68.588,784.18,63.779L707.19,21.9Zm82.409,46.29q3.205,2.8,6.324,5.738L992.955,179.657a226.83,226.83,0,0,0-83.67-47.827l-.055-.016ZM715.215,24.687A226.212,226.212,0,0,1,777.994,58.84Z" transform="translate(-320.91 -9.403)" fill="#192037" fill-rule="evenodd"/>
    <path id="Path_238" data-name="Path 238" d="M766.09,43.96l202.5,110.157-.661,1.213L765.428,45.173Z" transform="translate(-347.337 -19.948)" fill="#192037" fill-rule="evenodd"/>
    <path id="Path_239" data-name="Path 239" d="M710.857,114.529c37.358-5.245,73.55-2.441,107.6,8.328l.5.156.464-1.19L617.377,11.926l-.051-.016C583.07,1.074,546.646-1.749,509.091,3.533l-2.081.281,203.4,110.65.235.118ZM511.376,4.611l199.49,108.514a261.566,261.566,0,0,1,36.159-2.555,238.03,238.03,0,0,1,65.441,9.035L616.843,13.19C583.461,2.636,547.981-.246,511.376,4.611Z" transform="translate(-230.072 -0.43)" fill="#192037" fill-rule="evenodd"/>
    <path id="Path_240" data-name="Path 240" d="M643.982,5.7l202.53,110.166-.661,1.213L643.366,6.931Z" transform="translate(-291.947 -2.586)" fill="#192037" fill-rule="evenodd"/>
    <path id="Path_241" data-name="Path 241" d="M577.977.6,780.506,110.766l-.662,1.213L577.361,1.832Z" transform="translate(-261.996 -0.272)" fill="#192037" fill-rule="evenodd"/>
    <path id="Path_242" data-name="Path 242" d="M420.194,5.591l.235.118,203.4,110.65-2.079.281h0c-37.357,5.25-73.616,18.244-107.763,38.611l-.032.019-.347.149-.3-.152-.008,0L310.676,45.04l1.056-.611,0,0c34.29-20.454,70.711-33.509,108.244-38.783ZM619.482,115.574,419.971,7.047c-36.891,5.2-72.713,17.974-106.495,37.946L513.6,153.864C547.173,133.894,582.783,121.01,619.482,115.574Z" transform="translate(-140.979 -2.537)" fill="#192037" fill-rule="evenodd"/>
    <path id="Path_243" data-name="Path 243" d="M442.361,19.678,644.872,129.835l-.662,1.213L441.7,20.892Z" transform="translate(-200.435 -8.93)" fill="#192037" fill-rule="evenodd"/>
    <path id="Path_244" data-name="Path 244" d="M376.316,43.332,578.817,153.5l-.662,1.214L375.655,44.546Z" transform="translate(-170.465 -19.663)" fill="#192037" fill-rule="evenodd"/>
    <path id="Path_245" data-name="Path 245" d="M238.969,76.3l.362.181L441.954,186.7l-1.056.611,0,0A338.685,338.685,0,0,0,352.8,263.7l-.351.5-.531-.294,0,0L149.646,153.866l.539-.647v0A340.163,340.163,0,0,1,238.648,76.51ZM439.148,186.773,239.022,77.9a338.513,338.513,0,0,0-87.237,75.548l200.3,108.969A339.939,339.939,0,0,1,439.148,186.773Z" transform="translate(-67.907 -34.621)" fill="#192037" fill-rule="evenodd"/>
    <path id="Path_246" data-name="Path 246" d="M254,115.913,456.511,226.08l-.661,1.214L253.338,117.126Z" transform="translate(-114.96 -52.599)" fill="#192037" fill-rule="evenodd"/>
    <path id="Path_247" data-name="Path 247" d="M200.014,162.734l202.5,110.157-.662,1.213-202.5-110.157Z" transform="translate(-90.462 -73.846)" fill="#192037" fill-rule="evenodd"/>
    <path id="Path_248" data-name="Path 248" d="M101.2,216.325l.486.27,0,0L303.961,326.633l-.539.647h0a361.514,361.514,0,0,0-59.514,103.325l0,.005-.28.729-.7-.375L40.856,321.035l.224-.56a363.037,363.037,0,0,1,59.738-103.712l.005-.007ZM301.814,327.041l-200.3-108.958A361.978,361.978,0,0,0,42.58,320.407L242.885,429.369A363.081,363.081,0,0,1,301.814,327.041Z" transform="translate(-18.54 -98.164)" fill="#192037" fill-rule="evenodd"/>
    <path id="Path_249" data-name="Path 249" d="M106.791,276.739l.66-1.214L309.949,385.7l-.66,1.214Z" transform="translate(-48.46 -125.028)" fill="#192037" fill-rule="evenodd"/>
    <path id="Path_250" data-name="Path 250" d="M70.327,340.046l.66-1.214L273.485,449l-.66,1.213Z" transform="translate(-31.913 -153.756)" fill="#192037" fill-rule="evenodd"/>
    <path id="Path_251" data-name="Path 251" d="M23.223,405.652l.712.383L226.005,515.965l-.182.456-.039.1,0,.006a342.443,342.443,0,0,0-21.968,119.356v.013l-.054,1.134-.972-.541,0,0L.892,526.657v-.406A343.57,343.57,0,0,1,22.953,406.408Zm.733,1.969A342.426,342.426,0,0,0,2.263,525.835L202.424,634.72a343.5,343.5,0,0,1,21.847-118.126Z" transform="translate(-0.405 -184.077)" fill="#192037" fill-rule="evenodd"/>
    <path id="Path_252" data-name="Path 252" d="M18.722,479.172l.66-1.214,202.5,110.171-.66,1.213Z" transform="translate(-8.496 -216.888)" fill="#192037" fill-rule="evenodd"/>
    <path id="Path_253" data-name="Path 253" d="M5.267,552.315l.66-1.214,202.5,110.171-.66,1.214Z" transform="translate(-2.39 -250.079)" fill="#192037" fill-rule="evenodd"/>
    <path id="Path_254" data-name="Path 254" d="M.87,624.3l1.02.566L203.781,734.691v.406c-.077,40.338,7.171,78.429,21.53,113.217,0,0,0,0,0,.006l.8,1.824-1.763-.967h0L22.614,739.445l-.109-.217-.008-.018C8.067,704.245.793,665.976.87,625.468Zm1.382,2.323c.067,39.826,7.279,77.438,21.435,111.832l199.62,108.584c-13.893-34.357-20.925-71.866-20.9-111.533Z" transform="translate(-0.395 -283.294)" fill="#192037" fill-rule="evenodd"/>
    <path id="Path_255" data-name="Path 255" d="M4.994,698.686l.66-1.214,202.5,110.171-.66,1.213Z" transform="translate(-2.266 -316.5)" fill="#192037" fill-rule="evenodd"/>
    <path id="Path_256" data-name="Path 256" d="M18.194,768.092l.66-1.214,202.5,110.171-.66,1.213Z" transform="translate(-8.256 -347.995)" fill="#192037" fill-rule="evenodd"/>
    <path id="Path_257" data-name="Path 257" d="M39.19,831.389l1.682.922L242.608,942.042l.109.219.008.016c13.865,33.6,33.748,62.722,59.109,86.57l.007.006,3.631,3.529-4.456-2.409v-.006L99.389,920.285l-.052-.049c-25.5-23.984-45.5-53.273-59.439-87.052l0-.008Zm2.742,3.074c13.813,32.8,33.415,61.29,58.287,84.7L297.164,1026.3c-23.685-23.247-42.388-51.235-55.63-83.26Z" transform="translate(-17.784 -377.269)" fill="#192037" fill-rule="evenodd"/>
    <path id="Path_258" data-name="Path 258" d="M69.283,892.787l.66-1.213,202.5,110.17-.66,1.213Z" transform="translate(-31.439 -404.58)" fill="#192037" fill-rule="evenodd"/>
    <path id="Path_259" data-name="Path 259" d="M105.516,945.881l.66-1.214,202.5,110.168-.66,1.218Z" transform="translate(-47.881 -428.672)" fill="#192037" fill-rule="evenodd"/>
    <path id="Path_260" data-name="Path 260" d="M142.042,987.277l4.765,2.578,201.625,109.683.052.049q5.572,5.227,11.394,10.045l76.936,41.851-.452,1.207-.5-.158a227.911,227.911,0,0,1-76.76-41.747l-124.854-67.922a228.524,228.524,0,0,1-88.237-51.9Zm286.786,161.442a225.738,225.738,0,0,1-62.762-34.139ZM151.076,993.754a226.809,226.809,0,0,0,83.665,47.83l.051.016,119.155,64.825q-3.213-2.81-6.345-5.752Z" transform="translate(-64.456 -448.008)" fill="#192037" fill-rule="evenodd"/>
    <path id="Path_261" data-name="Path 261" d="M197.756,1032.633l.66-1.213,202.5,110.172-.66,1.213Z" transform="translate(-89.738 -468.039)" fill="#192037" fill-rule="evenodd"/>
    <path id="Path_262" data-name="Path 262" d="M279.62,4.9C242.262,10.148,206,23.141,171.855,43.508a338.463,338.463,0,0,0-88.109,76.4A361.656,361.656,0,0,0,24.231,223.237,342.441,342.441,0,0,0,2.261,342.6c-.077,40.34,7.172,78.431,21.532,113.219,13.864,33.6,33.759,62.72,59.109,86.57a229.629,229.629,0,0,0,47.6,34.543l179.638,97.718a234.567,234.567,0,0,1-26.652-21.63c-25.5-23.984-45.507-53.273-59.44-87.051-14.431-34.965-21.7-73.235-21.627-113.742A343.806,343.806,0,0,1,224.471,332.38a363.024,363.024,0,0,1,59.74-103.718,340.173,340.173,0,0,1,88.475-76.717c34.3-20.461,70.732-33.518,108.276-38.789s73.979-2.46,108.238,8.376q9.062,2.868,17.856,6.466l-179.6-97.7a228.979,228.979,0,0,0-40.211-17.079A235.917,235.917,0,0,0,315.817,2.328,260.692,260.692,0,0,0,279.62,4.9ZM428.141,29.1a229.874,229.874,0,0,0-40.461-17.184C353.423,1.078,317-1.734,279.444,3.538S205.467,21.866,171.168,42.327a340.165,340.165,0,0,0-88.474,76.717,363.052,363.052,0,0,0-59.74,103.718A343.565,343.565,0,0,0,.891,342.607c-.077,40.508,7.2,78.778,21.627,113.742,13.944,33.779,33.937,63.068,59.439,87.053a231.28,231.28,0,0,0,47.883,34.752L331.833,688.031l.75-1.18-.521-.279a229.886,229.886,0,0,1-47.6-34.548c-25.361-23.848-45.244-52.972-59.109-86.57-14.361-34.785-21.61-72.876-21.532-113.216a342.428,342.428,0,0,1,21.971-119.362,361.5,361.5,0,0,1,59.514-103.325,338.477,338.477,0,0,1,88.109-76.4c34.147-20.367,70.407-33.361,107.765-38.611s73.568-2.448,107.63,8.324A229.029,229.029,0,0,1,629.02,139.94l.486.264.661-1.213Z" transform="translate(-0.404 -0.434)" fill="#192037" fill-rule="evenodd"/>
    <path id="Path_263" data-name="Path 263" d="M387.4,13.21C353.334,2.427,317.088-.375,279.72,4.875S206.07,23.13,171.9,43.508a338.957,338.957,0,0,0-88.143,76.436A361.853,361.853,0,0,0,24.221,223.3,342.3,342.3,0,0,0,2.239,342.72c-.066,40.351,7.172,78.453,21.543,113.263C37.658,489.6,57.564,518.746,82.925,542.6a229.285,229.285,0,0,0,47.62,34.564l181.926,98.964a234.119,234.119,0,0,1-28.764-23.094c-25.481-23.963-45.474-53.24-59.406-87-14.431-34.943-21.7-73.2-21.627-113.688a343.654,343.654,0,0,1,22.051-119.8,362.961,362.961,0,0,1,59.719-103.674,340.048,340.048,0,0,1,88.43-76.684c34.289-20.461,70.71-33.507,108.232-38.778s73.924-2.46,108.172,8.376q10.365,3.279,20.276,7.47C552.048,97.968,481.768,59.736,427.636,30.3A228.175,228.175,0,0,0,387.4,13.21ZM629.7,138.955C569.243,106.063,488.629,62.209,428.163,29.329a229.264,229.264,0,0,0-40.427-17.173C353.5,1.321,317.089-1.491,279.566,3.781S205.623,22.109,171.334,42.559A340.06,340.06,0,0,0,82.9,119.242,362.976,362.976,0,0,0,23.185,222.916a343.4,343.4,0,0,0-22.051,119.8C1.068,383.2,8.33,421.451,22.761,456.4c13.932,33.757,33.926,63.035,59.406,87a230.523,230.523,0,0,0,47.85,34.731L331.5,687.726c.02.011.041.027.062.038l.528-.972a229.778,229.778,0,0,1-47.62-34.565c-25.361-23.853-45.266-53-59.142-86.614-14.372-34.8-21.62-72.914-21.543-113.265a342.551,342.551,0,0,1,21.981-119.417A361.874,361.874,0,0,1,285.3,229.573a338.963,338.963,0,0,1,88.143-76.436c34.169-20.389,70.451-33.383,107.82-38.632s73.6-2.448,107.685,8.335a228.2,228.2,0,0,1,40.229,17.09l.53-.971S629.7,138.956,629.7,138.955Z" transform="translate(-0.514 -0.545)" fill="#192037" fill-rule="evenodd"/>
    <path id="Path_264" data-name="Path 264" d="M926.764,700.844l.7.376,202.069,109.93-.18.456-.038.1c-.005,0-.005,0-.005.007a363.373,363.373,0,0,1-59.735,103.713l-.005.005-.377.432-.486-.273h-.005L866.427,805.551l.539-.647h0a361.989,361.989,0,0,0,59.513-103.325l0,0Zm-58.2,104.3,200.3,108.958A361.973,361.973,0,0,0,1127.8,811.778L927.492,702.815A363.528,363.528,0,0,1,868.564,805.144Z" transform="translate(-393.168 -318.03)" fill="#192037" fill-rule="evenodd"/>
    <path id="Path_265" data-name="Path 265" d="M910.288,832.79l.66-1.214,202.5,110.169-.656,1.213Z" transform="translate(-413.072 -377.354)" fill="#192037" fill-rule="evenodd"/>
    <path id="Path_266" data-name="Path 266" d="M946.754,769.491l.66-1.214,202.5,110.171-.661,1.213Z" transform="translate(-429.619 -348.63)" fill="#192037" fill-rule="evenodd"/>
    <path id="Path_267" data-name="Path 267" d="M998.155,481.543l1.016.564.006,0L1201.07,591.937v.406a343.725,343.725,0,0,1-22.056,119.826l-.224.795-.754-.4L975.965,602.629l.224-.56a342.609,342.609,0,0,0,21.966-119.355Zm1.371,2.331A344.108,344.108,0,0,1,977.688,602l200.3,108.962a342.557,342.557,0,0,0,21.7-118.2Z" transform="translate(-442.875 -218.515)" fill="#192037" fill-rule="evenodd"/>
    <path id="Path_268" data-name="Path 268" d="M998.348,630.379l.66-1.213,202.5,110.17-.655,1.214Z" transform="translate(-453.031 -285.504)" fill="#192037" fill-rule="evenodd"/>
    <path id="Path_269" data-name="Path 269" d="M1011.82,557.223l.661-1.214L1214.975,666.18l-.661,1.214Z" transform="translate(-459.145 -252.306)" fill="#192037" fill-rule="evenodd"/>
    <path id="Path_270" data-name="Path 270" d="M975.879,273.121l1.682.923,201.725,109.744.109.217.005.019c14.431,34.986,21.707,73.256,21.641,113.742v.013l-.055,1.134-.972-.54-.005,0L998.116,388.542v-.406c.082-40.318-7.172-78.41-21.53-113.22l0-.008ZM1199.66,496.6c-.071-39.8-7.281-77.417-21.439-111.833L978.6,276.174c13.894,34.39,20.912,71.9,20.9,111.545Z" transform="translate(-442.836 -123.937)" fill="#192037" fill-rule="evenodd"/>
    <path id="Path_271" data-name="Path 271" d="M1012.09,410.857l.661-1.214,202.5,110.171-.661,1.214Z" transform="translate(-459.267 -185.888)" fill="#192037" fill-rule="evenodd"/>
    <path id="Path_272" data-name="Path 272" d="M998.9,341.45l.66-1.214,202.5,110.171-.661,1.213Z" transform="translate(-453.282 -154.393)" fill="#192037" fill-rule="evenodd"/>
    <path id="Path_273" data-name="Path 273" d="M861.7,111.169l4.763,2.579,201.626,109.685.049.049c25.492,23.984,45.484,53.272,59.44,87.049v0l.776,1.826-1.737-.953h0L924.889,201.662l-.109-.217-.008-.019C910.9,167.82,891,138.7,865.665,114.858Zm8.621,6.237c23.676,23.25,42.369,51.238,55.632,83.263l199.6,108.574c-13.836-32.809-33.439-61.3-58.287-84.7Z" transform="translate(-391.022 -50.446)" fill="#192037" fill-rule="evenodd"/>
    <path id="Path_274" data-name="Path 274" d="M948.4,215.445,1150.9,325.6l-.661,1.213L947.74,216.659Z" transform="translate(-430.067 -97.765)" fill="#192037" fill-rule="evenodd"/>
    <path id="Path_275" data-name="Path 275" d="M912.142,162.35l202.509,110.168-.661,1.213L911.48,163.564Z" transform="translate(-413.613 -73.671)" fill="#192037" fill-rule="evenodd"/>
    <path id="Path_276" data-name="Path 276" d="M707.7,20.721l.475.15a227.862,227.862,0,0,1,76.792,41.756l124.82,67.9a228.4,228.4,0,0,1,88.247,51.9l.005,0,3.742,3.582-4.55-2.464h-.005L795.6,73.861l-.052-.049Q790,68.588,784.18,63.779L707.19,21.9Zm82.409,46.29q3.205,2.8,6.324,5.738L992.955,179.657a226.83,226.83,0,0,0-83.67-47.827l-.055-.016ZM715.215,24.687A226.212,226.212,0,0,1,777.994,58.84Z" transform="translate(-320.91 -9.403)" fill="#192037" fill-rule="evenodd"/>
    <path id="Path_277" data-name="Path 277" d="M819.934,75.605l202.508,110.168-.661,1.214L819.272,76.819Z" transform="translate(-371.77 -34.308)" fill="#192037" fill-rule="evenodd"/>
    <path id="Path_278" data-name="Path 278" d="M781.61,51.972,983.634,161.865a231.39,231.39,0,0,1,47.871,34.743c25.492,23.984,45.484,53.273,59.439,87.052,14.431,34.986,21.707,73.256,21.641,113.742a343.714,343.714,0,0,1-22.062,119.845,363.58,363.58,0,0,1-59.74,103.714v.005l-.071.087-.289.371-.508-.284h-.005L827.638,511.105l.539-.647h0a361.98,361.98,0,0,0,59.514-103.325A342.592,342.592,0,0,0,909.66,287.771c.082-40.318-7.172-78.409-21.53-113.219-13.875-33.608-33.77-62.73-59.108-86.57A229.608,229.608,0,0,0,781.434,53.45l-.486-.264Zm21.752,13.418a234.8,234.8,0,0,1,26.605,21.6c25.491,23.984,45.485,53.273,59.439,87.052,14.432,34.986,21.707,73.256,21.625,113.742a343.753,343.753,0,0,1-22.06,119.845,362.967,362.967,0,0,1-59.2,103.068l200.3,108.958a361.91,361.91,0,0,0,59.145-102.884,342.581,342.581,0,0,0,21.974-119.362c.076-40.318-7.172-78.409-21.532-113.219-13.879-33.607-33.773-62.73-59.112-86.569a229.442,229.442,0,0,0-47.587-34.533Z" transform="translate(-354.379 -23.584)" fill="#192037" fill-rule="evenodd"/>
    <path id="Path_279" data-name="Path 279" d="M781.959,53.649l.528-.971,201.54,109.628a230.36,230.36,0,0,1,47.838,34.721c25.481,23.974,45.462,53.241,59.407,87,14.42,34.953,21.7,73.2,21.625,113.687a343.626,343.626,0,0,1-22.051,119.8,362.838,362.838,0,0,1-59.718,103.671l-.29.355L828.311,511.373l.425-.517A362.117,362.117,0,0,0,888.273,407.5,342.816,342.816,0,0,0,910.255,288.08c.077-40.351-7.183-78.453-21.544-113.262C874.824,141.2,854.929,112.054,829.569,88.2a229.634,229.634,0,0,0-47.61-34.555Zm19.616,10.67A233.827,233.827,0,0,1,830.326,87.4c25.48,23.963,45.462,53.24,59.406,87,14.422,34.953,21.7,73.2,21.626,113.687a343.871,343.871,0,0,1-22.051,119.8,363.21,363.21,0,0,1-59.294,103.157l200.552,109.089a361.837,361.837,0,0,0,59.248-103,342.492,342.492,0,0,0,21.98-119.417c.065-40.351-7.183-78.453-21.543-113.263-13.885-33.618-33.784-62.752-59.145-86.614A229.089,229.089,0,0,0,983.5,163.277Z" transform="translate(-354.838 -23.904)" fill="#192037" fill-rule="evenodd"/>
    <path id="Path_280" data-name="Path 280" d="M142.042,987.277l4.765,2.578,201.625,109.683.052.049q5.572,5.227,11.394,10.045l76.936,41.851-.452,1.207-.5-.158a227.911,227.911,0,0,1-76.76-41.747l-124.854-67.922a228.524,228.524,0,0,1-88.237-51.9Zm286.786,161.442a225.738,225.738,0,0,1-62.762-34.139ZM151.076,993.754a226.809,226.809,0,0,0,83.665,47.83l.051.016,119.155,64.825q-3.213-2.81-6.345-5.752Z" transform="translate(-64.456 -448.008)" fill="#192037" fill-rule="evenodd"/>
    <path id="Path_281" data-name="Path 281" d="M251.585,1064.282l.66-1.213,202.5,110.167-.66,1.218Z" transform="translate(-114.165 -482.401)" fill="#192037" fill-rule="evenodd"/>
    <path id="Path_282" data-name="Path 282" d="M310.459,1086.42l.475.153c34.049,10.766,70.252,13.574,107.6,8.33l.214-.055.235.115,203.4,110.653-2.079.279h0a260.268,260.268,0,0,1-36.393,2.583,237.368,237.368,0,0,1-71.852-10.957l-.042-.016-.069-.033L309.948,1087.594Zm307.554,118.4L418.524,1096.3c-35.146,4.905-69.292,2.731-101.61-6.478l195.622,106.4C545.938,1206.779,581.419,1209.674,618.013,1204.818Z" transform="translate(-140.649 -492.997)" fill="#192037" fill-rule="evenodd"/>
    <path id="Path_283" data-name="Path 283" d="M373.7,1102.532l.66-1.213,202.5,110.172-.66,1.213Z" transform="translate(-169.576 -499.758)" fill="#192037" fill-rule="evenodd"/>
    <path id="Path_284" data-name="Path 284" d="M439.7,1107.653l.66-1.213,202.5,110.167-.66,1.218Z" transform="translate(-199.529 -502.082)" fill="#192037" fill-rule="evenodd"/>
    <path id="Path_285" data-name="Path 285" d="M615.122,1030.87l.362.18,202.622,110.227-1.054.612h-.005c-34.248,20.439-70.636,33.489-108.147,38.77l-.2.131-.34-.169-203.4-110.653,2.079-.279h0c37.364-5.249,73.619-18.244,107.751-38.607Zm200.2,110.451L615.2,1032.454c-33.565,19.981-69.175,32.866-105.883,38.3l199.511,108.528C745.735,1174.056,781.558,1161.3,815.32,1141.321Z" transform="translate(-229.145 -467.789)" fill="#192037" fill-rule="evenodd"/>
    <path id="Path_286" data-name="Path 286" d="M575.325,1088.573l.66-1.212,202.5,110.167-.66,1.218Z" transform="translate(-261.072 -493.424)" fill="#192037" fill-rule="evenodd"/>
    <path id="Path_287" data-name="Path 287" d="M641.393,1064.932l.66-1.213,202.5,110.167-.661,1.218Z" transform="translate(-291.052 -482.696)" fill="#192037" fill-rule="evenodd"/>
    <path id="Path_288" data-name="Path 288" d="M793.713,890.573l.486.27,0,0L996.472,1000.88l-.535.65h-.006a340.23,340.23,0,0,1-88.471,76.716l-.06.038-.355.1-.257-.131h-.011L704.154,968.025l1.056-.612h0a338.746,338.746,0,0,0,88.118-76.4l.005-.007Zm-86.753,77.4,200.128,108.872a338.55,338.55,0,0,0,87.248-75.558l-200.3-108.959A340.418,340.418,0,0,1,706.96,967.976Z" transform="translate(-319.532 -404.125)" fill="#192037" fill-rule="evenodd"/>
    <path id="Path_289" data-name="Path 289" d="M763.685,992.348l.66-1.214,202.5,110.17-.661,1.213Z" transform="translate(-346.546 -449.758)" fill="#192037" fill-rule="evenodd"/>
    <path id="Path_290" data-name="Path 290" d="M817.7,945.521l.66-1.213,202.5,110.168-.655,1.218Z" transform="translate(-371.056 -428.509)" fill="#192037" fill-rule="evenodd"/>
    <path id="Path_291" data-name="Path 291" d="M581.338,890.554l.485.269,0,0L784.1,1000.861l-.535.65h-.005a340.235,340.235,0,0,1-88.471,76.716c-34.292,20.461-70.722,33.516-108.277,38.787a261.065,261.065,0,0,1-36.4,2.584,237.371,237.371,0,0,1-71.852-10.957,230.532,230.532,0,0,1-40.438-17.173L236.737,981.912s0-.005,0-.005a1.152,1.152,0,0,1-.209-.126l-.382-.284.626-1.147.485.262a227.961,227.961,0,0,0,40.189,17.069c34.058,10.771,70.271,13.573,107.628,8.324s73.628-18.244,107.764-38.612a338.728,338.728,0,0,0,88.12-76.4l.005-.007ZM259.151,992.536,438.8,1090.255a228.26,228.26,0,0,0,40.188,17.064c34.058,10.771,70.27,13.574,107.628,8.324s73.626-18.244,107.765-38.607a338.5,338.5,0,0,0,87.586-75.755l-200.3-108.959A339.828,339.828,0,0,1,493.545,968.6c-34.289,20.461-70.721,33.521-108.276,38.792m0,0c-37.556,5.282-73.968,2.458-108.237-8.379q-9.078-2.868-17.881-6.473" transform="translate(-107.158 -404.117)" fill="#192037" fill-rule="evenodd"/>
    <path id="Path_292" data-name="Path 292" d="M581.774,890.891,784.3,1001.057l-.426.519a339.969,339.969,0,0,1-88.438,76.684c-34.281,20.456-70.7,33.494-108.222,38.776s-73.924,2.458-108.181-8.379a228.375,228.375,0,0,1-40.406-17.157L237.137,981.9c-.015-.011-.031-.016-.046-.027h0l.528-.972.052.033a227.031,227.031,0,0,0,40.158,17.048c34.091,10.782,70.326,13.585,107.694,8.335s73.651-18.244,107.809-38.634a338.745,338.745,0,0,0,88.153-76.434ZM257.28,991.6l181.877,98.931a227.572,227.572,0,0,0,40.21,17.08c34.091,10.782,70.326,13.584,107.694,8.335,37.369-5.266,73.653-18.244,107.808-38.634A338.653,338.653,0,0,0,782.6,1001.39L582.048,892.3a339.792,339.792,0,0,1-88.152,76.33c-34.278,20.461-70.7,33.505-108.221,38.776s-73.924,2.463-108.181-8.374Q267.165,995.77,257.28,991.6Z" transform="translate(-107.587 -404.269)" fill="#192037" fill-rule="evenodd"/>
  </g>
</svg>
